<svg width="1440" height="58" viewBox="0 0 1440 58" fill="none" xmlns="http://www.w3.org/2000/svg">
<mask id="path-1-inside-1_278_507" fill="white">
<path d="M1460 53.5156V57.9746H-3V53.5156H1460ZM63.5 40.1387H41.3369V26.7627H50.2021V22.3037H36.9043V44.5977H67.9326V8.91797H107.827V40.1387H85.6631V26.7627H94.5293V22.3037H81.2305V44.5977H112.26V8.91797H152.163V40.1387H130V26.7627H138.865V22.3037H125.558V44.5977H156.596V8.91797H196.5V40.1387H174.337V26.7627H183.202V22.3037H169.904V44.5977H200.933V8.91797H240.827V40.1387H218.663V26.7627H227.529V22.3037H214.23V44.5977H245.26V8.91797H285.163V40.1387H263V26.7627H271.865V22.3037H258.558V44.5977H289.596V8.91797H329.5V40.1387H307.337V26.7627H316.202V22.3037H302.904V44.5977H333.933V8.91797H373.827V40.1387H351.663V26.7627H360.529V22.3037H347.23V44.5977H378.26V8.91797H418.163V40.1387H396V26.7627H404.865V22.3037H391.558V44.5977H422.596V8.91797H462.5V40.1387H440.337V26.7627H449.202V22.3037H435.904V44.5977H466.933V8.91797H506.827V40.1387H484.663V26.7627H493.529V22.3037H480.23V44.5977H511.26V8.91797H551.163V40.1387H529V26.7627H537.865V22.3037H524.558V44.5977H555.596V8.91797H595.5V40.1387H573.337V26.7627H582.202V22.3037H568.904V44.5977H599.933V8.91797H639.827V40.1387H617.663V26.7627H626.529V22.3037H613.23V44.5977H644.26V8.91797H684.163V40.1387H662V26.7627H670.865V22.3037H657.558V44.5977H688.596V8.91797H728.5V40.1387H706.337V26.7627H715.202V22.3037H701.904V44.5977H732.933V8.91797H772.827V40.1387H750.663V26.7627H759.529V22.3037H746.23V44.5977H777.26V8.91797H817.163V40.1387H795V26.7627H803.865V22.3037H790.558V44.5977H821.596V8.91797H861.5V40.1387H839.337V26.7627H848.202V22.3037H834.904V44.5977H865.933V8.91797H905.827V40.1387H883.663V26.7627H892.529V22.3037H879.23V44.5977H910.26V8.91797H950.163V40.1387H928V26.7627H936.865V22.3037H923.558V44.5977H954.596V8.91797H994.5V40.1387H972.337V26.7627H981.202V22.3037H967.904V44.5977H998.933V8.91797H1038.83V40.1387H1016.66V26.7627H1025.53V22.3037H1012.23V44.5977H1043.26V8.91797H1083.16V40.1387H1061V26.7627H1069.87V22.3037H1056.56V44.5977H1087.6V8.91797H1127.5V40.1387H1105.34V26.7627H1114.2V22.3037H1100.9V44.5977H1131.93V8.91797H1171.83V40.1387H1149.66V26.7627H1158.53V22.3037H1145.23V44.5977H1176.26V8.91797H1216.16V40.1387H1194V26.7627H1202.87V22.3037H1189.56V44.5977H1220.6V8.91797H1260.5V40.1387H1238.34V26.7627H1247.2V22.3037H1233.9V44.5977H1264.93V8.91797H1304.83V40.1387H1282.66V26.7627H1291.53V22.3037H1278.23V44.5977H1309.26V8.91797H1349.16V40.1387H1327V26.7627H1335.87V22.3037H1322.56V44.5977H1353.6V8.91797H1393.5V40.1387H1371.34V26.7627H1380.2V22.3037H1366.9V44.5977H1397.93V8.91797H1437.83V40.1387H1415.66V26.7627H1424.53V22.3037H1411.23V44.5977H1442.26V8.91797H1460V13.3857H1446.69V49.0566H1406.8V17.8447H1428.96V31.2217H1420.1V35.6807H1433.39V13.3857H1402.37V49.0566H1362.47V17.8447H1384.63V31.2217H1375.77V35.6807H1389.07V13.3857H1358.04V49.0566H1318.12V17.8447H1340.3V31.2217H1331.43V35.6807H1344.73V13.3857H1313.69V49.0566H1273.8V17.8447H1295.96V31.2217H1287.1V35.6807H1300.39V13.3857H1269.37V49.0566H1229.47V17.8447H1251.63V31.2217H1242.77V35.6807H1256.07V13.3857H1225.04V49.0566H1185.12V17.8447H1207.3V31.2217H1198.43V35.6807H1211.73V13.3857H1180.69V49.0566H1140.8V17.8447H1162.96V31.2217H1154.1V35.6807H1167.39V13.3857H1136.37V49.0566H1096.47V17.8447H1118.63V31.2217H1109.77V35.6807H1123.07V13.3857H1092.04V49.0566H1052.12V17.8447H1074.3V31.2217H1065.43V35.6807H1078.73V13.3857H1047.69V49.0566H1007.8V17.8447H1029.96V31.2217H1021.1V35.6807H1034.39V13.3857H1003.37V49.0566H963.471V17.8447H985.635V31.2217H976.77V35.6807H990.067V13.3857H959.038V49.0566H919.125V17.8447H941.298V31.2217H932.433V35.6807H945.73V13.3857H914.692V49.0566H874.798V17.8447H896.962V31.2217H888.096V35.6807H901.395V13.3857H870.365V49.0566H830.471V17.8447H852.635V31.2217H843.77V35.6807H857.067V13.3857H826.038V49.0566H786.125V17.8447H808.298V31.2217H799.433V35.6807H812.73V13.3857H781.692V49.0566H741.798V17.8447H763.962V31.2217H755.096V35.6807H768.395V13.3857H737.365V49.0566H697.471V17.8447H719.635V31.2217H710.77V35.6807H724.067V13.3857H693.038V49.0566H653.125V17.8447H675.298V31.2217H666.433V35.6807H679.73V13.3857H648.692V49.0566H608.798V17.8447H630.962V31.2217H622.096V35.6807H635.395V13.3857H604.365V49.0566H564.471V17.8447H586.635V31.2217H577.77V35.6807H591.067V13.3857H560.038V49.0566H520.125V17.8447H542.298V31.2217H533.433V35.6807H546.73V13.3857H515.692V49.0566H475.798V17.8447H497.962V31.2217H489.096V35.6807H502.395V13.3857H471.365V49.0566H431.471V17.8447H453.635V31.2217H444.77V35.6807H458.067V13.3857H427.038V49.0566H387.125V17.8447H409.298V31.2217H400.433V35.6807H413.73V13.3857H382.692V49.0566H342.798V17.8447H364.962V31.2217H356.096V35.6807H369.395V13.3857H338.365V49.0566H298.471V17.8447H320.635V31.2217H311.77V35.6807H325.067V13.3857H294.038V49.0566H254.125V17.8447H276.298V31.2217H267.433V35.6807H280.73V13.3857H249.692V49.0566H209.798V17.8447H231.962V31.2217H223.096V35.6807H236.395V13.3857H205.365V49.0566H165.471V17.8447H187.635V31.2217H178.77V35.6807H192.067V13.3857H161.038V49.0566H121.125V17.8447H143.298V31.2217H134.433V35.6807H147.73V13.3857H116.692V49.0566H76.7979V17.8447H98.9619V31.2217H90.0957V35.6807H103.395V13.3857H72.3652V49.0566H32.4707V17.8447H54.6348V31.2217H45.7695V35.6807H59.0674V13.3857H28.0381V49.0566H-3V44.5977H23.5957V8.91797H63.5V40.1387ZM1460 22.3037H1455.56V44.5977H1460V49.0566H1451.12V17.8447H1460V22.3037ZM19.1631 40.1387H-3V26.7627H5.86523V22.3037H-3V17.8447H10.2979V31.2217H1.43262V35.6807H14.7305V13.3857H-3V8.91797H19.1631V40.1387ZM1460 0V4.45898H-3V0H1460Z"/>
</mask>
<path d="M1460 53.5156V57.9746H-3V53.5156H1460ZM63.5 40.1387H41.3369V26.7627H50.2021V22.3037H36.9043V44.5977H67.9326V8.91797H107.827V40.1387H85.6631V26.7627H94.5293V22.3037H81.2305V44.5977H112.26V8.91797H152.163V40.1387H130V26.7627H138.865V22.3037H125.558V44.5977H156.596V8.91797H196.5V40.1387H174.337V26.7627H183.202V22.3037H169.904V44.5977H200.933V8.91797H240.827V40.1387H218.663V26.7627H227.529V22.3037H214.23V44.5977H245.26V8.91797H285.163V40.1387H263V26.7627H271.865V22.3037H258.558V44.5977H289.596V8.91797H329.5V40.1387H307.337V26.7627H316.202V22.3037H302.904V44.5977H333.933V8.91797H373.827V40.1387H351.663V26.7627H360.529V22.3037H347.23V44.5977H378.26V8.91797H418.163V40.1387H396V26.7627H404.865V22.3037H391.558V44.5977H422.596V8.91797H462.5V40.1387H440.337V26.7627H449.202V22.3037H435.904V44.5977H466.933V8.91797H506.827V40.1387H484.663V26.7627H493.529V22.3037H480.23V44.5977H511.26V8.91797H551.163V40.1387H529V26.7627H537.865V22.3037H524.558V44.5977H555.596V8.91797H595.5V40.1387H573.337V26.7627H582.202V22.3037H568.904V44.5977H599.933V8.91797H639.827V40.1387H617.663V26.7627H626.529V22.3037H613.23V44.5977H644.26V8.91797H684.163V40.1387H662V26.7627H670.865V22.3037H657.558V44.5977H688.596V8.91797H728.5V40.1387H706.337V26.7627H715.202V22.3037H701.904V44.5977H732.933V8.91797H772.827V40.1387H750.663V26.7627H759.529V22.3037H746.23V44.5977H777.26V8.91797H817.163V40.1387H795V26.7627H803.865V22.3037H790.558V44.5977H821.596V8.91797H861.5V40.1387H839.337V26.7627H848.202V22.3037H834.904V44.5977H865.933V8.91797H905.827V40.1387H883.663V26.7627H892.529V22.3037H879.23V44.5977H910.26V8.91797H950.163V40.1387H928V26.7627H936.865V22.3037H923.558V44.5977H954.596V8.91797H994.5V40.1387H972.337V26.7627H981.202V22.3037H967.904V44.5977H998.933V8.91797H1038.83V40.1387H1016.66V26.7627H1025.53V22.3037H1012.23V44.5977H1043.26V8.91797H1083.16V40.1387H1061V26.7627H1069.87V22.3037H1056.56V44.5977H1087.6V8.91797H1127.5V40.1387H1105.34V26.7627H1114.2V22.3037H1100.9V44.5977H1131.93V8.91797H1171.83V40.1387H1149.66V26.7627H1158.53V22.3037H1145.23V44.5977H1176.26V8.91797H1216.16V40.1387H1194V26.7627H1202.87V22.3037H1189.56V44.5977H1220.6V8.91797H1260.5V40.1387H1238.34V26.7627H1247.2V22.3037H1233.9V44.5977H1264.93V8.91797H1304.83V40.1387H1282.66V26.7627H1291.53V22.3037H1278.23V44.5977H1309.26V8.91797H1349.16V40.1387H1327V26.7627H1335.87V22.3037H1322.56V44.5977H1353.6V8.91797H1393.5V40.1387H1371.34V26.7627H1380.2V22.3037H1366.9V44.5977H1397.93V8.91797H1437.83V40.1387H1415.66V26.7627H1424.53V22.3037H1411.23V44.5977H1442.26V8.91797H1460V13.3857H1446.69V49.0566H1406.8V17.8447H1428.96V31.2217H1420.1V35.6807H1433.39V13.3857H1402.37V49.0566H1362.47V17.8447H1384.63V31.2217H1375.77V35.6807H1389.07V13.3857H1358.04V49.0566H1318.12V17.8447H1340.3V31.2217H1331.43V35.6807H1344.73V13.3857H1313.69V49.0566H1273.8V17.8447H1295.96V31.2217H1287.1V35.6807H1300.39V13.3857H1269.37V49.0566H1229.47V17.8447H1251.63V31.2217H1242.77V35.6807H1256.07V13.3857H1225.04V49.0566H1185.12V17.8447H1207.3V31.2217H1198.43V35.6807H1211.73V13.3857H1180.69V49.0566H1140.8V17.8447H1162.96V31.2217H1154.1V35.6807H1167.39V13.3857H1136.37V49.0566H1096.47V17.8447H1118.63V31.2217H1109.77V35.6807H1123.07V13.3857H1092.04V49.0566H1052.12V17.8447H1074.3V31.2217H1065.43V35.6807H1078.73V13.3857H1047.69V49.0566H1007.8V17.8447H1029.96V31.2217H1021.1V35.6807H1034.39V13.3857H1003.37V49.0566H963.471V17.8447H985.635V31.2217H976.77V35.6807H990.067V13.3857H959.038V49.0566H919.125V17.8447H941.298V31.2217H932.433V35.6807H945.73V13.3857H914.692V49.0566H874.798V17.8447H896.962V31.2217H888.096V35.6807H901.395V13.3857H870.365V49.0566H830.471V17.8447H852.635V31.2217H843.77V35.6807H857.067V13.3857H826.038V49.0566H786.125V17.8447H808.298V31.2217H799.433V35.6807H812.73V13.3857H781.692V49.0566H741.798V17.8447H763.962V31.2217H755.096V35.6807H768.395V13.3857H737.365V49.0566H697.471V17.8447H719.635V31.2217H710.77V35.6807H724.067V13.3857H693.038V49.0566H653.125V17.8447H675.298V31.2217H666.433V35.6807H679.73V13.3857H648.692V49.0566H608.798V17.8447H630.962V31.2217H622.096V35.6807H635.395V13.3857H604.365V49.0566H564.471V17.8447H586.635V31.2217H577.77V35.6807H591.067V13.3857H560.038V49.0566H520.125V17.8447H542.298V31.2217H533.433V35.6807H546.73V13.3857H515.692V49.0566H475.798V17.8447H497.962V31.2217H489.096V35.6807H502.395V13.3857H471.365V49.0566H431.471V17.8447H453.635V31.2217H444.77V35.6807H458.067V13.3857H427.038V49.0566H387.125V17.8447H409.298V31.2217H400.433V35.6807H413.73V13.3857H382.692V49.0566H342.798V17.8447H364.962V31.2217H356.096V35.6807H369.395V13.3857H338.365V49.0566H298.471V17.8447H320.635V31.2217H311.77V35.6807H325.067V13.3857H294.038V49.0566H254.125V17.8447H276.298V31.2217H267.433V35.6807H280.73V13.3857H249.692V49.0566H209.798V17.8447H231.962V31.2217H223.096V35.6807H236.395V13.3857H205.365V49.0566H165.471V17.8447H187.635V31.2217H178.77V35.6807H192.067V13.3857H161.038V49.0566H121.125V17.8447H143.298V31.2217H134.433V35.6807H147.73V13.3857H116.692V49.0566H76.7979V17.8447H98.9619V31.2217H90.0957V35.6807H103.395V13.3857H72.3652V49.0566H32.4707V17.8447H54.6348V31.2217H45.7695V35.6807H59.0674V13.3857H28.0381V49.0566H-3V44.5977H23.5957V8.91797H63.5V40.1387ZM1460 22.3037H1455.56V44.5977H1460V49.0566H1451.12V17.8447H1460V22.3037ZM19.1631 40.1387H-3V26.7627H5.86523V22.3037H-3V17.8447H10.2979V31.2217H1.43262V35.6807H14.7305V13.3857H-3V8.91797H19.1631V40.1387ZM1460 0V4.45898H-3V0H1460Z" fill="#AE8E4A" fill-opacity="0.6"/>
<path d="M1460 53.5156H1461V52.5156H1460V53.5156ZM1460 57.9746V58.9746H1461V57.9746H1460ZM-3 57.9746H-4V58.9746H-3V57.9746ZM-3 53.5156V52.5156H-4V53.5156H-3ZM63.5 40.1387V41.1387H64.5V40.1387H63.5ZM41.3369 40.1387H40.3369V41.1387H41.3369V40.1387ZM41.3369 26.7627V25.7627H40.3369V26.7627H41.3369ZM50.2021 26.7627V27.7627H51.2021V26.7627H50.2021ZM50.2021 22.3037H51.2021V21.3037H50.2021V22.3037ZM36.9043 22.3037V21.3037H35.9043V22.3037H36.9043ZM36.9043 44.5977H35.9043V45.5977H36.9043V44.5977ZM67.9326 44.5977V45.5977H68.9326V44.5977H67.9326ZM67.9326 8.91797V7.91797H66.9326V8.91797H67.9326ZM107.827 8.91797H108.827V7.91797H107.827V8.91797ZM107.827 40.1387V41.1387H108.827V40.1387H107.827ZM85.6631 40.1387H84.6631V41.1387H85.6631V40.1387ZM85.6631 26.7627V25.7627H84.6631V26.7627H85.6631ZM94.5293 26.7627V27.7627H95.5293V26.7627H94.5293ZM94.5293 22.3037H95.5293V21.3037H94.5293V22.3037ZM81.2305 22.3037V21.3037H80.2305V22.3037H81.2305ZM81.2305 44.5977H80.2305V45.5977H81.2305V44.5977ZM112.26 44.5977V45.5977H113.26V44.5977H112.26ZM112.26 8.91797V7.91797H111.26V8.91797H112.26ZM152.163 8.91797H153.163V7.91797H152.163V8.91797ZM152.163 40.1387V41.1387H153.163V40.1387H152.163ZM130 40.1387H129V41.1387H130V40.1387ZM130 26.7627V25.7627H129V26.7627H130ZM138.865 26.7627V27.7627H139.865V26.7627H138.865ZM138.865 22.3037H139.865V21.3037H138.865V22.3037ZM125.558 22.3037V21.3037H124.558V22.3037H125.558ZM125.558 44.5977H124.558V45.5977H125.558V44.5977ZM156.596 44.5977V45.5977H157.596V44.5977H156.596ZM156.596 8.91797V7.91797H155.596V8.91797H156.596ZM196.5 8.91797H197.5V7.91797H196.5V8.91797ZM196.5 40.1387V41.1387H197.5V40.1387H196.5ZM174.337 40.1387H173.337V41.1387H174.337V40.1387ZM174.337 26.7627V25.7627H173.337V26.7627H174.337ZM183.202 26.7627V27.7627H184.202V26.7627H183.202ZM183.202 22.3037H184.202V21.3037H183.202V22.3037ZM169.904 22.3037V21.3037H168.904V22.3037H169.904ZM169.904 44.5977H168.904V45.5977H169.904V44.5977ZM200.933 44.5977V45.5977H201.933V44.5977H200.933ZM200.933 8.91797V7.91797H199.933V8.91797H200.933ZM240.827 8.91797H241.827V7.91797H240.827V8.91797ZM240.827 40.1387V41.1387H241.827V40.1387H240.827ZM218.663 40.1387H217.663V41.1387H218.663V40.1387ZM218.663 26.7627V25.7627H217.663V26.7627H218.663ZM227.529 26.7627V27.7627H228.529V26.7627H227.529ZM227.529 22.3037H228.529V21.3037H227.529V22.3037ZM214.23 22.3037V21.3037H213.23V22.3037H214.23ZM214.23 44.5977H213.23V45.5977H214.23V44.5977ZM245.26 44.5977V45.5977H246.26V44.5977H245.26ZM245.26 8.91797V7.91797H244.26V8.91797H245.26ZM285.163 8.91797H286.163V7.91797H285.163V8.91797ZM285.163 40.1387V41.1387H286.163V40.1387H285.163ZM263 40.1387H262V41.1387H263V40.1387ZM263 26.7627V25.7627H262V26.7627H263ZM271.865 26.7627V27.7627H272.865V26.7627H271.865ZM271.865 22.3037H272.865V21.3037H271.865V22.3037ZM258.558 22.3037V21.3037H257.558V22.3037H258.558ZM258.558 44.5977H257.558V45.5977H258.558V44.5977ZM289.596 44.5977V45.5977H290.596V44.5977H289.596ZM289.596 8.91797V7.91797H288.596V8.91797H289.596ZM329.5 8.91797H330.5V7.91797H329.5V8.91797ZM329.5 40.1387V41.1387H330.5V40.1387H329.5ZM307.337 40.1387H306.337V41.1387H307.337V40.1387ZM307.337 26.7627V25.7627H306.337V26.7627H307.337ZM316.202 26.7627V27.7627H317.202V26.7627H316.202ZM316.202 22.3037H317.202V21.3037H316.202V22.3037ZM302.904 22.3037V21.3037H301.904V22.3037H302.904ZM302.904 44.5977H301.904V45.5977H302.904V44.5977ZM333.933 44.5977V45.5977H334.933V44.5977H333.933ZM333.933 8.91797V7.91797H332.933V8.91797H333.933ZM373.827 8.91797H374.827V7.91797H373.827V8.91797ZM373.827 40.1387V41.1387H374.827V40.1387H373.827ZM351.663 40.1387H350.663V41.1387H351.663V40.1387ZM351.663 26.7627V25.7627H350.663V26.7627H351.663ZM360.529 26.7627V27.7627H361.529V26.7627H360.529ZM360.529 22.3037H361.529V21.3037H360.529V22.3037ZM347.23 22.3037V21.3037H346.23V22.3037H347.23ZM347.23 44.5977H346.23V45.5977H347.23V44.5977ZM378.26 44.5977V45.5977H379.26V44.5977H378.26ZM378.26 8.91797V7.91797H377.26V8.91797H378.26ZM418.163 8.91797H419.163V7.91797H418.163V8.91797ZM418.163 40.1387V41.1387H419.163V40.1387H418.163ZM396 40.1387H395V41.1387H396V40.1387ZM396 26.7627V25.7627H395V26.7627H396ZM404.865 26.7627V27.7627H405.865V26.7627H404.865ZM404.865 22.3037H405.865V21.3037H404.865V22.3037ZM391.558 22.3037V21.3037H390.558V22.3037H391.558ZM391.558 44.5977H390.558V45.5977H391.558V44.5977ZM422.596 44.5977V45.5977H423.596V44.5977H422.596ZM422.596 8.91797V7.91797H421.596V8.91797H422.596ZM462.5 8.91797H463.5V7.91797H462.5V8.91797ZM462.5 40.1387V41.1387H463.5V40.1387H462.5ZM440.337 40.1387H439.337V41.1387H440.337V40.1387ZM440.337 26.7627V25.7627H439.337V26.7627H440.337ZM449.202 26.7627V27.7627H450.202V26.7627H449.202ZM449.202 22.3037H450.202V21.3037H449.202V22.3037ZM435.904 22.3037V21.3037H434.904V22.3037H435.904ZM435.904 44.5977H434.904V45.5977H435.904V44.5977ZM466.933 44.5977V45.5977H467.933V44.5977H466.933ZM466.933 8.91797V7.91797H465.933V8.91797H466.933ZM506.827 8.91797H507.827V7.91797H506.827V8.91797ZM506.827 40.1387V41.1387H507.827V40.1387H506.827ZM484.663 40.1387H483.663V41.1387H484.663V40.1387ZM484.663 26.7627V25.7627H483.663V26.7627H484.663ZM493.529 26.7627V27.7627H494.529V26.7627H493.529ZM493.529 22.3037H494.529V21.3037H493.529V22.3037ZM480.23 22.3037V21.3037H479.23V22.3037H480.23ZM480.23 44.5977H479.23V45.5977H480.23V44.5977ZM511.26 44.5977V45.5977H512.26V44.5977H511.26ZM511.26 8.91797V7.91797H510.26V8.91797H511.26ZM551.163 8.91797H552.163V7.91797H551.163V8.91797ZM551.163 40.1387V41.1387H552.163V40.1387H551.163ZM529 40.1387H528V41.1387H529V40.1387ZM529 26.7627V25.7627H528V26.7627H529ZM537.865 26.7627V27.7627H538.865V26.7627H537.865ZM537.865 22.3037H538.865V21.3037H537.865V22.3037ZM524.558 22.3037V21.3037H523.558V22.3037H524.558ZM524.558 44.5977H523.558V45.5977H524.558V44.5977ZM555.596 44.5977V45.5977H556.596V44.5977H555.596ZM555.596 8.91797V7.91797H554.596V8.91797H555.596ZM595.5 8.91797H596.5V7.91797H595.5V8.91797ZM595.5 40.1387V41.1387H596.5V40.1387H595.5ZM573.337 40.1387H572.337V41.1387H573.337V40.1387ZM573.337 26.7627V25.7627H572.337V26.7627H573.337ZM582.202 26.7627V27.7627H583.202V26.7627H582.202ZM582.202 22.3037H583.202V21.3037H582.202V22.3037ZM568.904 22.3037V21.3037H567.904V22.3037H568.904ZM568.904 44.5977H567.904V45.5977H568.904V44.5977ZM599.933 44.5977V45.5977H600.933V44.5977H599.933ZM599.933 8.91797V7.91797H598.933V8.91797H599.933ZM639.827 8.91797H640.827V7.91797H639.827V8.91797ZM639.827 40.1387V41.1387H640.827V40.1387H639.827ZM617.663 40.1387H616.663V41.1387H617.663V40.1387ZM617.663 26.7627V25.7627H616.663V26.7627H617.663ZM626.529 26.7627V27.7627H627.529V26.7627H626.529ZM626.529 22.3037H627.529V21.3037H626.529V22.3037ZM613.23 22.3037V21.3037H612.23V22.3037H613.23ZM613.23 44.5977H612.23V45.5977H613.23V44.5977ZM644.26 44.5977V45.5977H645.26V44.5977H644.26ZM644.26 8.91797V7.91797H643.26V8.91797H644.26ZM684.163 8.91797H685.163V7.91797H684.163V8.91797ZM684.163 40.1387V41.1387H685.163V40.1387H684.163ZM662 40.1387H661V41.1387H662V40.1387ZM662 26.7627V25.7627H661V26.7627H662ZM670.865 26.7627V27.7627H671.865V26.7627H670.865ZM670.865 22.3037H671.865V21.3037H670.865V22.3037ZM657.558 22.3037V21.3037H656.558V22.3037H657.558ZM657.558 44.5977H656.558V45.5977H657.558V44.5977ZM688.596 44.5977V45.5977H689.596V44.5977H688.596ZM688.596 8.91797V7.91797H687.596V8.91797H688.596ZM728.5 8.91797H729.5V7.91797H728.5V8.91797ZM728.5 40.1387V41.1387H729.5V40.1387H728.5ZM706.337 40.1387H705.337V41.1387H706.337V40.1387ZM706.337 26.7627V25.7627H705.337V26.7627H706.337ZM715.202 26.7627V27.7627H716.202V26.7627H715.202ZM715.202 22.3037H716.202V21.3037H715.202V22.3037ZM701.904 22.3037V21.3037H700.904V22.3037H701.904ZM701.904 44.5977H700.904V45.5977H701.904V44.5977ZM732.933 44.5977V45.5977H733.933V44.5977H732.933ZM732.933 8.91797V7.91797H731.933V8.91797H732.933ZM772.827 8.91797H773.827V7.91797H772.827V8.91797ZM772.827 40.1387V41.1387H773.827V40.1387H772.827ZM750.663 40.1387H749.663V41.1387H750.663V40.1387ZM750.663 26.7627V25.7627H749.663V26.7627H750.663ZM759.529 26.7627V27.7627H760.529V26.7627H759.529ZM759.529 22.3037H760.529V21.3037H759.529V22.3037ZM746.23 22.3037V21.3037H745.23V22.3037H746.23ZM746.23 44.5977H745.23V45.5977H746.23V44.5977ZM777.26 44.5977V45.5977H778.26V44.5977H777.26ZM777.26 8.91797V7.91797H776.26V8.91797H777.26ZM817.163 8.91797H818.163V7.91797H817.163V8.91797ZM817.163 40.1387V41.1387H818.163V40.1387H817.163ZM795 40.1387H794V41.1387H795V40.1387ZM795 26.7627V25.7627H794V26.7627H795ZM803.865 26.7627V27.7627H804.865V26.7627H803.865ZM803.865 22.3037H804.865V21.3037H803.865V22.3037ZM790.558 22.3037V21.3037H789.558V22.3037H790.558ZM790.558 44.5977H789.558V45.5977H790.558V44.5977ZM821.596 44.5977V45.5977H822.596V44.5977H821.596ZM821.596 8.91797V7.91797H820.596V8.91797H821.596ZM861.5 8.91797H862.5V7.91797H861.5V8.91797ZM861.5 40.1387V41.1387H862.5V40.1387H861.5ZM839.337 40.1387H838.337V41.1387H839.337V40.1387ZM839.337 26.7627V25.7627H838.337V26.7627H839.337ZM848.202 26.7627V27.7627H849.202V26.7627H848.202ZM848.202 22.3037H849.202V21.3037H848.202V22.3037ZM834.904 22.3037V21.3037H833.904V22.3037H834.904ZM834.904 44.5977H833.904V45.5977H834.904V44.5977ZM865.933 44.5977V45.5977H866.933V44.5977H865.933ZM865.933 8.91797V7.91797H864.933V8.91797H865.933ZM905.827 8.91797H906.827V7.91797H905.827V8.91797ZM905.827 40.1387V41.1387H906.827V40.1387H905.827ZM883.663 40.1387H882.663V41.1387H883.663V40.1387ZM883.663 26.7627V25.7627H882.663V26.7627H883.663ZM892.529 26.7627V27.7627H893.529V26.7627H892.529ZM892.529 22.3037H893.529V21.3037H892.529V22.3037ZM879.23 22.3037V21.3037H878.23V22.3037H879.23ZM879.23 44.5977H878.23V45.5977H879.23V44.5977ZM910.26 44.5977V45.5977H911.26V44.5977H910.26ZM910.26 8.91797V7.91797H909.26V8.91797H910.26ZM950.163 8.91797H951.163V7.91797H950.163V8.91797ZM950.163 40.1387V41.1387H951.163V40.1387H950.163ZM928 40.1387H927V41.1387H928V40.1387ZM928 26.7627V25.7627H927V26.7627H928ZM936.865 26.7627V27.7627H937.865V26.7627H936.865ZM936.865 22.3037H937.865V21.3037H936.865V22.3037ZM923.558 22.3037V21.3037H922.558V22.3037H923.558ZM923.558 44.5977H922.558V45.5977H923.558V44.5977ZM954.596 44.5977V45.5977H955.596V44.5977H954.596ZM954.596 8.91797V7.91797H953.596V8.91797H954.596ZM994.5 8.91797H995.5V7.91797H994.5V8.91797ZM994.5 40.1387V41.1387H995.5V40.1387H994.5ZM972.337 40.1387H971.337V41.1387H972.337V40.1387ZM972.337 26.7627V25.7627H971.337V26.7627H972.337ZM981.202 26.7627V27.7627H982.202V26.7627H981.202ZM981.202 22.3037H982.202V21.3037H981.202V22.3037ZM967.904 22.3037V21.3037H966.904V22.3037H967.904ZM967.904 44.5977H966.904V45.5977H967.904V44.5977ZM998.933 44.5977V45.5977H999.933V44.5977H998.933ZM998.933 8.91797V7.91797H997.933V8.91797H998.933ZM1038.83 8.91797H1039.83V7.91797H1038.83V8.91797ZM1038.83 40.1387V41.1387H1039.83V40.1387H1038.83ZM1016.66 40.1387H1015.66V41.1387H1016.66V40.1387ZM1016.66 26.7627V25.7627H1015.66V26.7627H1016.66ZM1025.53 26.7627V27.7627H1026.53V26.7627H1025.53ZM1025.53 22.3037H1026.53V21.3037H1025.53V22.3037ZM1012.23 22.3037V21.3037H1011.23V22.3037H1012.23ZM1012.23 44.5977H1011.23V45.5977H1012.23V44.5977ZM1043.26 44.5977V45.5977H1044.26V44.5977H1043.26ZM1043.26 8.91797V7.91797H1042.26V8.91797H1043.26ZM1083.16 8.91797H1084.16V7.91797H1083.16V8.91797ZM1083.16 40.1387V41.1387H1084.16V40.1387H1083.16ZM1061 40.1387H1060V41.1387H1061V40.1387ZM1061 26.7627V25.7627H1060V26.7627H1061ZM1069.87 26.7627V27.7627H1070.87V26.7627H1069.87ZM1069.87 22.3037H1070.87V21.3037H1069.87V22.3037ZM1056.56 22.3037V21.3037H1055.56V22.3037H1056.56ZM1056.56 44.5977H1055.56V45.5977H1056.56V44.5977ZM1087.6 44.5977V45.5977H1088.6V44.5977H1087.6ZM1087.6 8.91797V7.91797H1086.6V8.91797H1087.6ZM1127.5 8.91797H1128.5V7.91797H1127.5V8.91797ZM1127.5 40.1387V41.1387H1128.5V40.1387H1127.5ZM1105.34 40.1387H1104.34V41.1387H1105.34V40.1387ZM1105.34 26.7627V25.7627H1104.34V26.7627H1105.34ZM1114.2 26.7627V27.7627H1115.2V26.7627H1114.2ZM1114.2 22.3037H1115.2V21.3037H1114.2V22.3037ZM1100.9 22.3037V21.3037H1099.9V22.3037H1100.9ZM1100.9 44.5977H1099.9V45.5977H1100.9V44.5977ZM1131.93 44.5977V45.5977H1132.93V44.5977H1131.93ZM1131.93 8.91797V7.91797H1130.93V8.91797H1131.93ZM1171.83 8.91797H1172.83V7.91797H1171.83V8.91797ZM1171.83 40.1387V41.1387H1172.83V40.1387H1171.83ZM1149.66 40.1387H1148.66V41.1387H1149.66V40.1387ZM1149.66 26.7627V25.7627H1148.66V26.7627H1149.66ZM1158.53 26.7627V27.7627H1159.53V26.7627H1158.53ZM1158.53 22.3037H1159.53V21.3037H1158.53V22.3037ZM1145.23 22.3037V21.3037H1144.23V22.3037H1145.23ZM1145.23 44.5977H1144.23V45.5977H1145.23V44.5977ZM1176.26 44.5977V45.5977H1177.26V44.5977H1176.26ZM1176.26 8.91797V7.91797H1175.26V8.91797H1176.26ZM1216.16 8.91797H1217.16V7.91797H1216.16V8.91797ZM1216.16 40.1387V41.1387H1217.16V40.1387H1216.16ZM1194 40.1387H1193V41.1387H1194V40.1387ZM1194 26.7627V25.7627H1193V26.7627H1194ZM1202.87 26.7627V27.7627H1203.87V26.7627H1202.87ZM1202.87 22.3037H1203.87V21.3037H1202.87V22.3037ZM1189.56 22.3037V21.3037H1188.56V22.3037H1189.56ZM1189.56 44.5977H1188.56V45.5977H1189.56V44.5977ZM1220.6 44.5977V45.5977H1221.6V44.5977H1220.6ZM1220.6 8.91797V7.91797H1219.6V8.91797H1220.6ZM1260.5 8.91797H1261.5V7.91797H1260.5V8.91797ZM1260.5 40.1387V41.1387H1261.5V40.1387H1260.5ZM1238.34 40.1387H1237.34V41.1387H1238.34V40.1387ZM1238.34 26.7627V25.7627H1237.34V26.7627H1238.34ZM1247.2 26.7627V27.7627H1248.2V26.7627H1247.2ZM1247.2 22.3037H1248.2V21.3037H1247.2V22.3037ZM1233.9 22.3037V21.3037H1232.9V22.3037H1233.9ZM1233.9 44.5977H1232.9V45.5977H1233.9V44.5977ZM1264.93 44.5977V45.5977H1265.93V44.5977H1264.93ZM1264.93 8.91797V7.91797H1263.93V8.91797H1264.93ZM1304.83 8.91797H1305.83V7.91797H1304.83V8.91797ZM1304.83 40.1387V41.1387H1305.83V40.1387H1304.83ZM1282.66 40.1387H1281.66V41.1387H1282.66V40.1387ZM1282.66 26.7627V25.7627H1281.66V26.7627H1282.66ZM1291.53 26.7627V27.7627H1292.53V26.7627H1291.53ZM1291.53 22.3037H1292.53V21.3037H1291.53V22.3037ZM1278.23 22.3037V21.3037H1277.23V22.3037H1278.23ZM1278.23 44.5977H1277.23V45.5977H1278.23V44.5977ZM1309.26 44.5977V45.5977H1310.26V44.5977H1309.26ZM1309.26 8.91797V7.91797H1308.26V8.91797H1309.26ZM1349.16 8.91797H1350.16V7.91797H1349.16V8.91797ZM1349.16 40.1387V41.1387H1350.16V40.1387H1349.16ZM1327 40.1387H1326V41.1387H1327V40.1387ZM1327 26.7627V25.7627H1326V26.7627H1327ZM1335.87 26.7627V27.7627H1336.87V26.7627H1335.87ZM1335.87 22.3037H1336.87V21.3037H1335.87V22.3037ZM1322.56 22.3037V21.3037H1321.56V22.3037H1322.56ZM1322.56 44.5977H1321.56V45.5977H1322.56V44.5977ZM1353.6 44.5977V45.5977H1354.6V44.5977H1353.6ZM1353.6 8.91797V7.91797H1352.6V8.91797H1353.6ZM1393.5 8.91797H1394.5V7.91797H1393.5V8.91797ZM1393.5 40.1387V41.1387H1394.5V40.1387H1393.5ZM1371.34 40.1387H1370.34V41.1387H1371.34V40.1387ZM1371.34 26.7627V25.7627H1370.34V26.7627H1371.34ZM1380.2 26.7627V27.7627H1381.2V26.7627H1380.2ZM1380.2 22.3037H1381.2V21.3037H1380.2V22.3037ZM1366.9 22.3037V21.3037H1365.9V22.3037H1366.9ZM1366.9 44.5977H1365.9V45.5977H1366.9V44.5977ZM1397.93 44.5977V45.5977H1398.93V44.5977H1397.93ZM1397.93 8.91797V7.91797H1396.93V8.91797H1397.93ZM1437.83 8.91797H1438.83V7.91797H1437.83V8.91797ZM1437.83 40.1387V41.1387H1438.83V40.1387H1437.83ZM1415.66 40.1387H1414.66V41.1387H1415.66V40.1387ZM1415.66 26.7627V25.7627H1414.66V26.7627H1415.66ZM1424.53 26.7627V27.7627H1425.53V26.7627H1424.53ZM1424.53 22.3037H1425.53V21.3037H1424.53V22.3037ZM1411.23 22.3037V21.3037H1410.23V22.3037H1411.23ZM1411.23 44.5977H1410.23V45.5977H1411.23V44.5977ZM1442.26 44.5977V45.5977H1443.26V44.5977H1442.26ZM1442.26 8.91797V7.91797H1441.26V8.91797H1442.26ZM1460 8.91797H1461V7.91797H1460V8.91797ZM1460 13.3857V14.3857H1461V13.3857H1460ZM1446.69 13.3857V12.3857H1445.69V13.3857H1446.69ZM1446.69 49.0566V50.0566H1447.69V49.0566H1446.69ZM1406.8 49.0566H1405.8V50.0566H1406.8V49.0566ZM1406.8 17.8447V16.8447H1405.8V17.8447H1406.8ZM1428.96 17.8447H1429.96V16.8447H1428.96V17.8447ZM1428.96 31.2217V32.2217H1429.96V31.2217H1428.96ZM1420.1 31.2217V30.2217H1419.1V31.2217H1420.1ZM1420.1 35.6807H1419.1V36.6807H1420.1V35.6807ZM1433.39 35.6807V36.6807H1434.39V35.6807H1433.39ZM1433.39 13.3857H1434.39V12.3857H1433.39V13.3857ZM1402.37 13.3857V12.3857H1401.37V13.3857H1402.37ZM1402.37 49.0566V50.0566H1403.37V49.0566H1402.37ZM1362.47 49.0566H1361.47V50.0566H1362.47V49.0566ZM1362.47 17.8447V16.8447H1361.47V17.8447H1362.47ZM1384.63 17.8447H1385.63V16.8447H1384.63V17.8447ZM1384.63 31.2217V32.2217H1385.63V31.2217H1384.63ZM1375.77 31.2217V30.2217H1374.77V31.2217H1375.77ZM1375.77 35.6807H1374.77V36.6807H1375.77V35.6807ZM1389.07 35.6807V36.6807H1390.07V35.6807H1389.07ZM1389.07 13.3857H1390.07V12.3857H1389.07V13.3857ZM1358.04 13.3857V12.3857H1357.04V13.3857H1358.04ZM1358.04 49.0566V50.0566H1359.04V49.0566H1358.04ZM1318.12 49.0566H1317.12V50.0566H1318.12V49.0566ZM1318.12 17.8447V16.8447H1317.12V17.8447H1318.12ZM1340.3 17.8447H1341.3V16.8447H1340.3V17.8447ZM1340.3 31.2217V32.2217H1341.3V31.2217H1340.3ZM1331.43 31.2217V30.2217H1330.43V31.2217H1331.43ZM1331.43 35.6807H1330.43V36.6807H1331.43V35.6807ZM1344.73 35.6807V36.6807H1345.73V35.6807H1344.73ZM1344.73 13.3857H1345.73V12.3857H1344.73V13.3857ZM1313.69 13.3857V12.3857H1312.69V13.3857H1313.69ZM1313.69 49.0566V50.0566H1314.69V49.0566H1313.69ZM1273.8 49.0566H1272.8V50.0566H1273.8V49.0566ZM1273.8 17.8447V16.8447H1272.8V17.8447H1273.8ZM1295.96 17.8447H1296.96V16.8447H1295.96V17.8447ZM1295.96 31.2217V32.2217H1296.96V31.2217H1295.96ZM1287.1 31.2217V30.2217H1286.1V31.2217H1287.1ZM1287.1 35.6807H1286.1V36.6807H1287.1V35.6807ZM1300.39 35.6807V36.6807H1301.39V35.6807H1300.39ZM1300.39 13.3857H1301.39V12.3857H1300.39V13.3857ZM1269.37 13.3857V12.3857H1268.37V13.3857H1269.37ZM1269.37 49.0566V50.0566H1270.37V49.0566H1269.37ZM1229.47 49.0566H1228.47V50.0566H1229.47V49.0566ZM1229.47 17.8447V16.8447H1228.47V17.8447H1229.47ZM1251.63 17.8447H1252.63V16.8447H1251.63V17.8447ZM1251.63 31.2217V32.2217H1252.63V31.2217H1251.63ZM1242.77 31.2217V30.2217H1241.77V31.2217H1242.77ZM1242.77 35.6807H1241.77V36.6807H1242.77V35.6807ZM1256.07 35.6807V36.6807H1257.07V35.6807H1256.07ZM1256.07 13.3857H1257.07V12.3857H1256.07V13.3857ZM1225.04 13.3857V12.3857H1224.04V13.3857H1225.04ZM1225.04 49.0566V50.0566H1226.04V49.0566H1225.04ZM1185.12 49.0566H1184.12V50.0566H1185.12V49.0566ZM1185.12 17.8447V16.8447H1184.12V17.8447H1185.12ZM1207.3 17.8447H1208.3V16.8447H1207.3V17.8447ZM1207.3 31.2217V32.2217H1208.3V31.2217H1207.3ZM1198.43 31.2217V30.2217H1197.43V31.2217H1198.43ZM1198.43 35.6807H1197.43V36.6807H1198.43V35.6807ZM1211.73 35.6807V36.6807H1212.73V35.6807H1211.73ZM1211.73 13.3857H1212.73V12.3857H1211.73V13.3857ZM1180.69 13.3857V12.3857H1179.69V13.3857H1180.69ZM1180.69 49.0566V50.0566H1181.69V49.0566H1180.69ZM1140.8 49.0566H1139.8V50.0566H1140.8V49.0566ZM1140.8 17.8447V16.8447H1139.8V17.8447H1140.8ZM1162.96 17.8447H1163.96V16.8447H1162.96V17.8447ZM1162.96 31.2217V32.2217H1163.96V31.2217H1162.96ZM1154.1 31.2217V30.2217H1153.1V31.2217H1154.1ZM1154.1 35.6807H1153.1V36.6807H1154.1V35.6807ZM1167.39 35.6807V36.6807H1168.39V35.6807H1167.39ZM1167.39 13.3857H1168.39V12.3857H1167.39V13.3857ZM1136.37 13.3857V12.3857H1135.37V13.3857H1136.37ZM1136.37 49.0566V50.0566H1137.37V49.0566H1136.37ZM1096.47 49.0566H1095.47V50.0566H1096.47V49.0566ZM1096.47 17.8447V16.8447H1095.47V17.8447H1096.47ZM1118.63 17.8447H1119.63V16.8447H1118.63V17.8447ZM1118.63 31.2217V32.2217H1119.63V31.2217H1118.63ZM1109.77 31.2217V30.2217H1108.77V31.2217H1109.77ZM1109.77 35.6807H1108.77V36.6807H1109.77V35.6807ZM1123.07 35.6807V36.6807H1124.07V35.6807H1123.07ZM1123.07 13.3857H1124.07V12.3857H1123.07V13.3857ZM1092.04 13.3857V12.3857H1091.04V13.3857H1092.04ZM1092.04 49.0566V50.0566H1093.04V49.0566H1092.04ZM1052.12 49.0566H1051.12V50.0566H1052.12V49.0566ZM1052.12 17.8447V16.8447H1051.12V17.8447H1052.12ZM1074.3 17.8447H1075.3V16.8447H1074.3V17.8447ZM1074.3 31.2217V32.2217H1075.3V31.2217H1074.3ZM1065.43 31.2217V30.2217H1064.43V31.2217H1065.43ZM1065.43 35.6807H1064.43V36.6807H1065.43V35.6807ZM1078.73 35.6807V36.6807H1079.73V35.6807H1078.73ZM1078.73 13.3857H1079.73V12.3857H1078.73V13.3857ZM1047.69 13.3857V12.3857H1046.69V13.3857H1047.69ZM1047.69 49.0566V50.0566H1048.69V49.0566H1047.69ZM1007.8 49.0566H1006.8V50.0566H1007.8V49.0566ZM1007.8 17.8447V16.8447H1006.8V17.8447H1007.8ZM1029.96 17.8447H1030.96V16.8447H1029.96V17.8447ZM1029.96 31.2217V32.2217H1030.96V31.2217H1029.96ZM1021.1 31.2217V30.2217H1020.1V31.2217H1021.1ZM1021.1 35.6807H1020.1V36.6807H1021.1V35.6807ZM1034.39 35.6807V36.6807H1035.39V35.6807H1034.39ZM1034.39 13.3857H1035.39V12.3857H1034.39V13.3857ZM1003.37 13.3857V12.3857H1002.37V13.3857H1003.37ZM1003.37 49.0566V50.0566H1004.37V49.0566H1003.37ZM963.471 49.0566H962.471V50.0566H963.471V49.0566ZM963.471 17.8447V16.8447H962.471V17.8447H963.471ZM985.635 17.8447H986.635V16.8447H985.635V17.8447ZM985.635 31.2217V32.2217H986.635V31.2217H985.635ZM976.77 31.2217V30.2217H975.77V31.2217H976.77ZM976.77 35.6807H975.77V36.6807H976.77V35.6807ZM990.067 35.6807V36.6807H991.067V35.6807H990.067ZM990.067 13.3857H991.067V12.3857H990.067V13.3857ZM959.038 13.3857V12.3857H958.038V13.3857H959.038ZM959.038 49.0566V50.0566H960.038V49.0566H959.038ZM919.125 49.0566H918.125V50.0566H919.125V49.0566ZM919.125 17.8447V16.8447H918.125V17.8447H919.125ZM941.298 17.8447H942.298V16.8447H941.298V17.8447ZM941.298 31.2217V32.2217H942.298V31.2217H941.298ZM932.433 31.2217V30.2217H931.433V31.2217H932.433ZM932.433 35.6807H931.433V36.6807H932.433V35.6807ZM945.73 35.6807V36.6807H946.73V35.6807H945.73ZM945.73 13.3857H946.73V12.3857H945.73V13.3857ZM914.692 13.3857V12.3857H913.692V13.3857H914.692ZM914.692 49.0566V50.0566H915.692V49.0566H914.692ZM874.798 49.0566H873.798V50.0566H874.798V49.0566ZM874.798 17.8447V16.8447H873.798V17.8447H874.798ZM896.962 17.8447H897.962V16.8447H896.962V17.8447ZM896.962 31.2217V32.2217H897.962V31.2217H896.962ZM888.096 31.2217V30.2217H887.096V31.2217H888.096ZM888.096 35.6807H887.096V36.6807H888.096V35.6807ZM901.395 35.6807V36.6807H902.395V35.6807H901.395ZM901.395 13.3857H902.395V12.3857H901.395V13.3857ZM870.365 13.3857V12.3857H869.365V13.3857H870.365ZM870.365 49.0566V50.0566H871.365V49.0566H870.365ZM830.471 49.0566H829.471V50.0566H830.471V49.0566ZM830.471 17.8447V16.8447H829.471V17.8447H830.471ZM852.635 17.8447H853.635V16.8447H852.635V17.8447ZM852.635 31.2217V32.2217H853.635V31.2217H852.635ZM843.77 31.2217V30.2217H842.77V31.2217H843.77ZM843.77 35.6807H842.77V36.6807H843.77V35.6807ZM857.067 35.6807V36.6807H858.067V35.6807H857.067ZM857.067 13.3857H858.067V12.3857H857.067V13.3857ZM826.038 13.3857V12.3857H825.038V13.3857H826.038ZM826.038 49.0566V50.0566H827.038V49.0566H826.038ZM786.125 49.0566H785.125V50.0566H786.125V49.0566ZM786.125 17.8447V16.8447H785.125V17.8447H786.125ZM808.298 17.8447H809.298V16.8447H808.298V17.8447ZM808.298 31.2217V32.2217H809.298V31.2217H808.298ZM799.433 31.2217V30.2217H798.433V31.2217H799.433ZM799.433 35.6807H798.433V36.6807H799.433V35.6807ZM812.73 35.6807V36.6807H813.73V35.6807H812.73ZM812.73 13.3857H813.73V12.3857H812.73V13.3857ZM781.692 13.3857V12.3857H780.692V13.3857H781.692ZM781.692 49.0566V50.0566H782.692V49.0566H781.692ZM741.798 49.0566H740.798V50.0566H741.798V49.0566ZM741.798 17.8447V16.8447H740.798V17.8447H741.798ZM763.962 17.8447H764.962V16.8447H763.962V17.8447ZM763.962 31.2217V32.2217H764.962V31.2217H763.962ZM755.096 31.2217V30.2217H754.096V31.2217H755.096ZM755.096 35.6807H754.096V36.6807H755.096V35.6807ZM768.395 35.6807V36.6807H769.395V35.6807H768.395ZM768.395 13.3857H769.395V12.3857H768.395V13.3857ZM737.365 13.3857V12.3857H736.365V13.3857H737.365ZM737.365 49.0566V50.0566H738.365V49.0566H737.365ZM697.471 49.0566H696.471V50.0566H697.471V49.0566ZM697.471 17.8447V16.8447H696.471V17.8447H697.471ZM719.635 17.8447H720.635V16.8447H719.635V17.8447ZM719.635 31.2217V32.2217H720.635V31.2217H719.635ZM710.77 31.2217V30.2217H709.77V31.2217H710.77ZM710.77 35.6807H709.77V36.6807H710.77V35.6807ZM724.067 35.6807V36.6807H725.067V35.6807H724.067ZM724.067 13.3857H725.067V12.3857H724.067V13.3857ZM693.038 13.3857V12.3857H692.038V13.3857H693.038ZM693.038 49.0566V50.0566H694.038V49.0566H693.038ZM653.125 49.0566H652.125V50.0566H653.125V49.0566ZM653.125 17.8447V16.8447H652.125V17.8447H653.125ZM675.298 17.8447H676.298V16.8447H675.298V17.8447ZM675.298 31.2217V32.2217H676.298V31.2217H675.298ZM666.433 31.2217V30.2217H665.433V31.2217H666.433ZM666.433 35.6807H665.433V36.6807H666.433V35.6807ZM679.73 35.6807V36.6807H680.73V35.6807H679.73ZM679.73 13.3857H680.73V12.3857H679.73V13.3857ZM648.692 13.3857V12.3857H647.692V13.3857H648.692ZM648.692 49.0566V50.0566H649.692V49.0566H648.692ZM608.798 49.0566H607.798V50.0566H608.798V49.0566ZM608.798 17.8447V16.8447H607.798V17.8447H608.798ZM630.962 17.8447H631.962V16.8447H630.962V17.8447ZM630.962 31.2217V32.2217H631.962V31.2217H630.962ZM622.096 31.2217V30.2217H621.096V31.2217H622.096ZM622.096 35.6807H621.096V36.6807H622.096V35.6807ZM635.395 35.6807V36.6807H636.395V35.6807H635.395ZM635.395 13.3857H636.395V12.3857H635.395V13.3857ZM604.365 13.3857V12.3857H603.365V13.3857H604.365ZM604.365 49.0566V50.0566H605.365V49.0566H604.365ZM564.471 49.0566H563.471V50.0566H564.471V49.0566ZM564.471 17.8447V16.8447H563.471V17.8447H564.471ZM586.635 17.8447H587.635V16.8447H586.635V17.8447ZM586.635 31.2217V32.2217H587.635V31.2217H586.635ZM577.77 31.2217V30.2217H576.77V31.2217H577.77ZM577.77 35.6807H576.77V36.6807H577.77V35.6807ZM591.067 35.6807V36.6807H592.067V35.6807H591.067ZM591.067 13.3857H592.067V12.3857H591.067V13.3857ZM560.038 13.3857V12.3857H559.038V13.3857H560.038ZM560.038 49.0566V50.0566H561.038V49.0566H560.038ZM520.125 49.0566H519.125V50.0566H520.125V49.0566ZM520.125 17.8447V16.8447H519.125V17.8447H520.125ZM542.298 17.8447H543.298V16.8447H542.298V17.8447ZM542.298 31.2217V32.2217H543.298V31.2217H542.298ZM533.433 31.2217V30.2217H532.433V31.2217H533.433ZM533.433 35.6807H532.433V36.6807H533.433V35.6807ZM546.73 35.6807V36.6807H547.73V35.6807H546.73ZM546.73 13.3857H547.73V12.3857H546.73V13.3857ZM515.692 13.3857V12.3857H514.692V13.3857H515.692ZM515.692 49.0566V50.0566H516.692V49.0566H515.692ZM475.798 49.0566H474.798V50.0566H475.798V49.0566ZM475.798 17.8447V16.8447H474.798V17.8447H475.798ZM497.962 17.8447H498.962V16.8447H497.962V17.8447ZM497.962 31.2217V32.2217H498.962V31.2217H497.962ZM489.096 31.2217V30.2217H488.096V31.2217H489.096ZM489.096 35.6807H488.096V36.6807H489.096V35.6807ZM502.395 35.6807V36.6807H503.395V35.6807H502.395ZM502.395 13.3857H503.395V12.3857H502.395V13.3857ZM471.365 13.3857V12.3857H470.365V13.3857H471.365ZM471.365 49.0566V50.0566H472.365V49.0566H471.365ZM431.471 49.0566H430.471V50.0566H431.471V49.0566ZM431.471 17.8447V16.8447H430.471V17.8447H431.471ZM453.635 17.8447H454.635V16.8447H453.635V17.8447ZM453.635 31.2217V32.2217H454.635V31.2217H453.635ZM444.77 31.2217V30.2217H443.77V31.2217H444.77ZM444.77 35.6807H443.77V36.6807H444.77V35.6807ZM458.067 35.6807V36.6807H459.067V35.6807H458.067ZM458.067 13.3857H459.067V12.3857H458.067V13.3857ZM427.038 13.3857V12.3857H426.038V13.3857H427.038ZM427.038 49.0566V50.0566H428.038V49.0566H427.038ZM387.125 49.0566H386.125V50.0566H387.125V49.0566ZM387.125 17.8447V16.8447H386.125V17.8447H387.125ZM409.298 17.8447H410.298V16.8447H409.298V17.8447ZM409.298 31.2217V32.2217H410.298V31.2217H409.298ZM400.433 31.2217V30.2217H399.433V31.2217H400.433ZM400.433 35.6807H399.433V36.6807H400.433V35.6807ZM413.73 35.6807V36.6807H414.73V35.6807H413.73ZM413.73 13.3857H414.73V12.3857H413.73V13.3857ZM382.692 13.3857V12.3857H381.692V13.3857H382.692ZM382.692 49.0566V50.0566H383.692V49.0566H382.692ZM342.798 49.0566H341.798V50.0566H342.798V49.0566ZM342.798 17.8447V16.8447H341.798V17.8447H342.798ZM364.962 17.8447H365.962V16.8447H364.962V17.8447ZM364.962 31.2217V32.2217H365.962V31.2217H364.962ZM356.096 31.2217V30.2217H355.096V31.2217H356.096ZM356.096 35.6807H355.096V36.6807H356.096V35.6807ZM369.395 35.6807V36.6807H370.395V35.6807H369.395ZM369.395 13.3857H370.395V12.3857H369.395V13.3857ZM338.365 13.3857V12.3857H337.365V13.3857H338.365ZM338.365 49.0566V50.0566H339.365V49.0566H338.365ZM298.471 49.0566H297.471V50.0566H298.471V49.0566ZM298.471 17.8447V16.8447H297.471V17.8447H298.471ZM320.635 17.8447H321.635V16.8447H320.635V17.8447ZM320.635 31.2217V32.2217H321.635V31.2217H320.635ZM311.77 31.2217V30.2217H310.77V31.2217H311.77ZM311.77 35.6807H310.77V36.6807H311.77V35.6807ZM325.067 35.6807V36.6807H326.067V35.6807H325.067ZM325.067 13.3857H326.067V12.3857H325.067V13.3857ZM294.038 13.3857V12.3857H293.038V13.3857H294.038ZM294.038 49.0566V50.0566H295.038V49.0566H294.038ZM254.125 49.0566H253.125V50.0566H254.125V49.0566ZM254.125 17.8447V16.8447H253.125V17.8447H254.125ZM276.298 17.8447H277.298V16.8447H276.298V17.8447ZM276.298 31.2217V32.2217H277.298V31.2217H276.298ZM267.433 31.2217V30.2217H266.433V31.2217H267.433ZM267.433 35.6807H266.433V36.6807H267.433V35.6807ZM280.73 35.6807V36.6807H281.73V35.6807H280.73ZM280.73 13.3857H281.73V12.3857H280.73V13.3857ZM249.692 13.3857V12.3857H248.692V13.3857H249.692ZM249.692 49.0566V50.0566H250.692V49.0566H249.692ZM209.798 49.0566H208.798V50.0566H209.798V49.0566ZM209.798 17.8447V16.8447H208.798V17.8447H209.798ZM231.962 17.8447H232.962V16.8447H231.962V17.8447ZM231.962 31.2217V32.2217H232.962V31.2217H231.962ZM223.096 31.2217V30.2217H222.096V31.2217H223.096ZM223.096 35.6807H222.096V36.6807H223.096V35.6807ZM236.395 35.6807V36.6807H237.395V35.6807H236.395ZM236.395 13.3857H237.395V12.3857H236.395V13.3857ZM205.365 13.3857V12.3857H204.365V13.3857H205.365ZM205.365 49.0566V50.0566H206.365V49.0566H205.365ZM165.471 49.0566H164.471V50.0566H165.471V49.0566ZM165.471 17.8447V16.8447H164.471V17.8447H165.471ZM187.635 17.8447H188.635V16.8447H187.635V17.8447ZM187.635 31.2217V32.2217H188.635V31.2217H187.635ZM178.77 31.2217V30.2217H177.77V31.2217H178.77ZM178.77 35.6807H177.77V36.6807H178.77V35.6807ZM192.067 35.6807V36.6807H193.067V35.6807H192.067ZM192.067 13.3857H193.067V12.3857H192.067V13.3857ZM161.038 13.3857V12.3857H160.038V13.3857H161.038ZM161.038 49.0566V50.0566H162.038V49.0566H161.038ZM121.125 49.0566H120.125V50.0566H121.125V49.0566ZM121.125 17.8447V16.8447H120.125V17.8447H121.125ZM143.298 17.8447H144.298V16.8447H143.298V17.8447ZM143.298 31.2217V32.2217H144.298V31.2217H143.298ZM134.433 31.2217V30.2217H133.433V31.2217H134.433ZM134.433 35.6807H133.433V36.6807H134.433V35.6807ZM147.73 35.6807V36.6807H148.73V35.6807H147.73ZM147.73 13.3857H148.73V12.3857H147.73V13.3857ZM116.692 13.3857V12.3857H115.692V13.3857H116.692ZM116.692 49.0566V50.0566H117.692V49.0566H116.692ZM76.7979 49.0566H75.7979V50.0566H76.7979V49.0566ZM76.7979 17.8447V16.8447H75.7979V17.8447H76.7979ZM98.9619 17.8447H99.9619V16.8447H98.9619V17.8447ZM98.9619 31.2217V32.2217H99.9619V31.2217H98.9619ZM90.0957 31.2217V30.2217H89.0957V31.2217H90.0957ZM90.0957 35.6807H89.0957V36.6807H90.0957V35.6807ZM103.395 35.6807V36.6807H104.395V35.6807H103.395ZM103.395 13.3857H104.395V12.3857H103.395V13.3857ZM72.3652 13.3857V12.3857H71.3652V13.3857H72.3652ZM72.3652 49.0566V50.0566H73.3652V49.0566H72.3652ZM32.4707 49.0566H31.4707V50.0566H32.4707V49.0566ZM32.4707 17.8447V16.8447H31.4707V17.8447H32.4707ZM54.6348 17.8447H55.6348V16.8447H54.6348V17.8447ZM54.6348 31.2217V32.2217H55.6348V31.2217H54.6348ZM45.7695 31.2217V30.2217H44.7695V31.2217H45.7695ZM45.7695 35.6807H44.7695V36.6807H45.7695V35.6807ZM59.0674 35.6807V36.6807H60.0674V35.6807H59.0674ZM59.0674 13.3857H60.0674V12.3857H59.0674V13.3857ZM28.0381 13.3857V12.3857H27.0381V13.3857H28.0381ZM28.0381 49.0566V50.0566H29.0381V49.0566H28.0381ZM-3 49.0566H-4V50.0566H-3V49.0566ZM-3 44.5977V43.5977H-4V44.5977H-3ZM23.5957 44.5977V45.5977H24.5957V44.5977H23.5957ZM23.5957 8.91797V7.91797H22.5957V8.91797H23.5957ZM63.5 8.91797H64.5V7.91797H63.5V8.91797ZM1460 22.3037V23.3037H1461V22.3037H1460ZM1455.56 22.3037V21.3037H1454.56V22.3037H1455.56ZM1455.56 44.5977H1454.56V45.5977H1455.56V44.5977ZM1460 44.5977H1461V43.5977H1460V44.5977ZM1460 49.0566V50.0566H1461V49.0566H1460ZM1451.12 49.0566H1450.12V50.0566H1451.12V49.0566ZM1451.12 17.8447V16.8447H1450.12V17.8447H1451.12ZM1460 17.8447H1461V16.8447H1460V17.8447ZM19.1631 40.1387V41.1387H20.1631V40.1387H19.1631ZM-3 40.1387H-4V41.1387H-3V40.1387ZM-3 26.7627V25.7627H-4V26.7627H-3ZM5.86523 26.7627V27.7627H6.86523V26.7627H5.86523ZM5.86523 22.3037H6.86523V21.3037H5.86523V22.3037ZM-3 22.3037H-4V23.3037H-3V22.3037ZM-3 17.8447V16.8447H-4V17.8447H-3ZM10.2979 17.8447H11.2979V16.8447H10.2979V17.8447ZM10.2979 31.2217V32.2217H11.2979V31.2217H10.2979ZM1.43262 31.2217V30.2217H0.432617V31.2217H1.43262ZM1.43262 35.6807H0.432617V36.6807H1.43262V35.6807ZM14.7305 35.6807V36.6807H15.7305V35.6807H14.7305ZM14.7305 13.3857H15.7305V12.3857H14.7305V13.3857ZM-3 13.3857H-4V14.3857H-3V13.3857ZM-3 8.91797V7.91797H-4V8.91797H-3ZM19.1631 8.91797H20.1631V7.91797H19.1631V8.91797ZM1460 0H1461V-1H1460V0ZM1460 4.45898V5.45898H1461V4.45898H1460ZM-3 4.45898H-4V5.45898H-3V4.45898ZM-3 0V-1H-4V0H-3ZM1460 53.5156H1459V57.9746H1460H1461V53.5156H1460ZM1460 57.9746V56.9746H-3V57.9746V58.9746H1460V57.9746ZM-3 57.9746H-2V53.5156H-3H-4V57.9746H-3ZM-3 53.5156V54.5156H1460V53.5156V52.5156H-3V53.5156ZM63.5 40.1387V39.1387H41.3369V40.1387V41.1387H63.5V40.1387ZM41.3369 40.1387H42.3369V26.7627H41.3369H40.3369V40.1387H41.3369ZM41.3369 26.7627V27.7627H50.2021V26.7627V25.7627H41.3369V26.7627ZM50.2021 26.7627H51.2021V22.3037H50.2021H49.2021V26.7627H50.2021ZM50.2021 22.3037V21.3037H36.9043V22.3037V23.3037H50.2021V22.3037ZM36.9043 22.3037H35.9043V44.5977H36.9043H37.9043V22.3037H36.9043ZM36.9043 44.5977V45.5977H67.9326V44.5977V43.5977H36.9043V44.5977ZM67.9326 44.5977H68.9326V8.91797H67.9326H66.9326V44.5977H67.9326ZM67.9326 8.91797V9.91797H107.827V8.91797V7.91797H67.9326V8.91797ZM107.827 8.91797H106.827V40.1387H107.827H108.827V8.91797H107.827ZM107.827 40.1387V39.1387H85.6631V40.1387V41.1387H107.827V40.1387ZM85.6631 40.1387H86.6631V26.7627H85.6631H84.6631V40.1387H85.6631ZM85.6631 26.7627V27.7627H94.5293V26.7627V25.7627H85.6631V26.7627ZM94.5293 26.7627H95.5293V22.3037H94.5293H93.5293V26.7627H94.5293ZM94.5293 22.3037V21.3037H81.2305V22.3037V23.3037H94.5293V22.3037ZM81.2305 22.3037H80.2305V44.5977H81.2305H82.2305V22.3037H81.2305ZM81.2305 44.5977V45.5977H112.26V44.5977V43.5977H81.2305V44.5977ZM112.26 44.5977H113.26V8.91797H112.26H111.26V44.5977H112.26ZM112.26 8.91797V9.91797H152.163V8.91797V7.91797H112.26V8.91797ZM152.163 8.91797H151.163V40.1387H152.163H153.163V8.91797H152.163ZM152.163 40.1387V39.1387H130V40.1387V41.1387H152.163V40.1387ZM130 40.1387H131V26.7627H130H129V40.1387H130ZM130 26.7627V27.7627H138.865V26.7627V25.7627H130V26.7627ZM138.865 26.7627H139.865V22.3037H138.865H137.865V26.7627H138.865ZM138.865 22.3037V21.3037H125.558V22.3037V23.3037H138.865V22.3037ZM125.558 22.3037H124.558V44.5977H125.558H126.558V22.3037H125.558ZM125.558 44.5977V45.5977H156.596V44.5977V43.5977H125.558V44.5977ZM156.596 44.5977H157.596V8.91797H156.596H155.596V44.5977H156.596ZM156.596 8.91797V9.91797H196.5V8.91797V7.91797H156.596V8.91797ZM196.5 8.91797H195.5V40.1387H196.5H197.5V8.91797H196.5ZM196.5 40.1387V39.1387H174.337V40.1387V41.1387H196.5V40.1387ZM174.337 40.1387H175.337V26.7627H174.337H173.337V40.1387H174.337ZM174.337 26.7627V27.7627H183.202V26.7627V25.7627H174.337V26.7627ZM183.202 26.7627H184.202V22.3037H183.202H182.202V26.7627H183.202ZM183.202 22.3037V21.3037H169.904V22.3037V23.3037H183.202V22.3037ZM169.904 22.3037H168.904V44.5977H169.904H170.904V22.3037H169.904ZM169.904 44.5977V45.5977H200.933V44.5977V43.5977H169.904V44.5977ZM200.933 44.5977H201.933V8.91797H200.933H199.933V44.5977H200.933ZM200.933 8.91797V9.91797H240.827V8.91797V7.91797H200.933V8.91797ZM240.827 8.91797H239.827V40.1387H240.827H241.827V8.91797H240.827ZM240.827 40.1387V39.1387H218.663V40.1387V41.1387H240.827V40.1387ZM218.663 40.1387H219.663V26.7627H218.663H217.663V40.1387H218.663ZM218.663 26.7627V27.7627H227.529V26.7627V25.7627H218.663V26.7627ZM227.529 26.7627H228.529V22.3037H227.529H226.529V26.7627H227.529ZM227.529 22.3037V21.3037H214.23V22.3037V23.3037H227.529V22.3037ZM214.23 22.3037H213.23V44.5977H214.23H215.23V22.3037H214.23ZM214.23 44.5977V45.5977H245.26V44.5977V43.5977H214.23V44.5977ZM245.26 44.5977H246.26V8.91797H245.26H244.26V44.5977H245.26ZM245.26 8.91797V9.91797H285.163V8.91797V7.91797H245.26V8.91797ZM285.163 8.91797H284.163V40.1387H285.163H286.163V8.91797H285.163ZM285.163 40.1387V39.1387H263V40.1387V41.1387H285.163V40.1387ZM263 40.1387H264V26.7627H263H262V40.1387H263ZM263 26.7627V27.7627H271.865V26.7627V25.7627H263V26.7627ZM271.865 26.7627H272.865V22.3037H271.865H270.865V26.7627H271.865ZM271.865 22.3037V21.3037H258.558V22.3037V23.3037H271.865V22.3037ZM258.558 22.3037H257.558V44.5977H258.558H259.558V22.3037H258.558ZM258.558 44.5977V45.5977H289.596V44.5977V43.5977H258.558V44.5977ZM289.596 44.5977H290.596V8.91797H289.596H288.596V44.5977H289.596ZM289.596 8.91797V9.91797H329.5V8.91797V7.91797H289.596V8.91797ZM329.5 8.91797H328.5V40.1387H329.5H330.5V8.91797H329.5ZM329.5 40.1387V39.1387H307.337V40.1387V41.1387H329.5V40.1387ZM307.337 40.1387H308.337V26.7627H307.337H306.337V40.1387H307.337ZM307.337 26.7627V27.7627H316.202V26.7627V25.7627H307.337V26.7627ZM316.202 26.7627H317.202V22.3037H316.202H315.202V26.7627H316.202ZM316.202 22.3037V21.3037H302.904V22.3037V23.3037H316.202V22.3037ZM302.904 22.3037H301.904V44.5977H302.904H303.904V22.3037H302.904ZM302.904 44.5977V45.5977H333.933V44.5977V43.5977H302.904V44.5977ZM333.933 44.5977H334.933V8.91797H333.933H332.933V44.5977H333.933ZM333.933 8.91797V9.91797H373.827V8.91797V7.91797H333.933V8.91797ZM373.827 8.91797H372.827V40.1387H373.827H374.827V8.91797H373.827ZM373.827 40.1387V39.1387H351.663V40.1387V41.1387H373.827V40.1387ZM351.663 40.1387H352.663V26.7627H351.663H350.663V40.1387H351.663ZM351.663 26.7627V27.7627H360.529V26.7627V25.7627H351.663V26.7627ZM360.529 26.7627H361.529V22.3037H360.529H359.529V26.7627H360.529ZM360.529 22.3037V21.3037H347.23V22.3037V23.3037H360.529V22.3037ZM347.23 22.3037H346.23V44.5977H347.23H348.23V22.3037H347.23ZM347.23 44.5977V45.5977H378.26V44.5977V43.5977H347.23V44.5977ZM378.26 44.5977H379.26V8.91797H378.26H377.26V44.5977H378.26ZM378.26 8.91797V9.91797H418.163V8.91797V7.91797H378.26V8.91797ZM418.163 8.91797H417.163V40.1387H418.163H419.163V8.91797H418.163ZM418.163 40.1387V39.1387H396V40.1387V41.1387H418.163V40.1387ZM396 40.1387H397V26.7627H396H395V40.1387H396ZM396 26.7627V27.7627H404.865V26.7627V25.7627H396V26.7627ZM404.865 26.7627H405.865V22.3037H404.865H403.865V26.7627H404.865ZM404.865 22.3037V21.3037H391.558V22.3037V23.3037H404.865V22.3037ZM391.558 22.3037H390.558V44.5977H391.558H392.558V22.3037H391.558ZM391.558 44.5977V45.5977H422.596V44.5977V43.5977H391.558V44.5977ZM422.596 44.5977H423.596V8.91797H422.596H421.596V44.5977H422.596ZM422.596 8.91797V9.91797H462.5V8.91797V7.91797H422.596V8.91797ZM462.5 8.91797H461.5V40.1387H462.5H463.5V8.91797H462.5ZM462.5 40.1387V39.1387H440.337V40.1387V41.1387H462.5V40.1387ZM440.337 40.1387H441.337V26.7627H440.337H439.337V40.1387H440.337ZM440.337 26.7627V27.7627H449.202V26.7627V25.7627H440.337V26.7627ZM449.202 26.7627H450.202V22.3037H449.202H448.202V26.7627H449.202ZM449.202 22.3037V21.3037H435.904V22.3037V23.3037H449.202V22.3037ZM435.904 22.3037H434.904V44.5977H435.904H436.904V22.3037H435.904ZM435.904 44.5977V45.5977H466.933V44.5977V43.5977H435.904V44.5977ZM466.933 44.5977H467.933V8.91797H466.933H465.933V44.5977H466.933ZM466.933 8.91797V9.91797H506.827V8.91797V7.91797H466.933V8.91797ZM506.827 8.91797H505.827V40.1387H506.827H507.827V8.91797H506.827ZM506.827 40.1387V39.1387H484.663V40.1387V41.1387H506.827V40.1387ZM484.663 40.1387H485.663V26.7627H484.663H483.663V40.1387H484.663ZM484.663 26.7627V27.7627H493.529V26.7627V25.7627H484.663V26.7627ZM493.529 26.7627H494.529V22.3037H493.529H492.529V26.7627H493.529ZM493.529 22.3037V21.3037H480.23V22.3037V23.3037H493.529V22.3037ZM480.23 22.3037H479.23V44.5977H480.23H481.23V22.3037H480.23ZM480.23 44.5977V45.5977H511.26V44.5977V43.5977H480.23V44.5977ZM511.26 44.5977H512.26V8.91797H511.26H510.26V44.5977H511.26ZM511.26 8.91797V9.91797H551.163V8.91797V7.91797H511.26V8.91797ZM551.163 8.91797H550.163V40.1387H551.163H552.163V8.91797H551.163ZM551.163 40.1387V39.1387H529V40.1387V41.1387H551.163V40.1387ZM529 40.1387H530V26.7627H529H528V40.1387H529ZM529 26.7627V27.7627H537.865V26.7627V25.7627H529V26.7627ZM537.865 26.7627H538.865V22.3037H537.865H536.865V26.7627H537.865ZM537.865 22.3037V21.3037H524.558V22.3037V23.3037H537.865V22.3037ZM524.558 22.3037H523.558V44.5977H524.558H525.558V22.3037H524.558ZM524.558 44.5977V45.5977H555.596V44.5977V43.5977H524.558V44.5977ZM555.596 44.5977H556.596V8.91797H555.596H554.596V44.5977H555.596ZM555.596 8.91797V9.91797H595.5V8.91797V7.91797H555.596V8.91797ZM595.5 8.91797H594.5V40.1387H595.5H596.5V8.91797H595.5ZM595.5 40.1387V39.1387H573.337V40.1387V41.1387H595.5V40.1387ZM573.337 40.1387H574.337V26.7627H573.337H572.337V40.1387H573.337ZM573.337 26.7627V27.7627H582.202V26.7627V25.7627H573.337V26.7627ZM582.202 26.7627H583.202V22.3037H582.202H581.202V26.7627H582.202ZM582.202 22.3037V21.3037H568.904V22.3037V23.3037H582.202V22.3037ZM568.904 22.3037H567.904V44.5977H568.904H569.904V22.3037H568.904ZM568.904 44.5977V45.5977H599.933V44.5977V43.5977H568.904V44.5977ZM599.933 44.5977H600.933V8.91797H599.933H598.933V44.5977H599.933ZM599.933 8.91797V9.91797H639.827V8.91797V7.91797H599.933V8.91797ZM639.827 8.91797H638.827V40.1387H639.827H640.827V8.91797H639.827ZM639.827 40.1387V39.1387H617.663V40.1387V41.1387H639.827V40.1387ZM617.663 40.1387H618.663V26.7627H617.663H616.663V40.1387H617.663ZM617.663 26.7627V27.7627H626.529V26.7627V25.7627H617.663V26.7627ZM626.529 26.7627H627.529V22.3037H626.529H625.529V26.7627H626.529ZM626.529 22.3037V21.3037H613.23V22.3037V23.3037H626.529V22.3037ZM613.23 22.3037H612.23V44.5977H613.23H614.23V22.3037H613.23ZM613.23 44.5977V45.5977H644.26V44.5977V43.5977H613.23V44.5977ZM644.26 44.5977H645.26V8.91797H644.26H643.26V44.5977H644.26ZM644.26 8.91797V9.91797H684.163V8.91797V7.91797H644.26V8.91797ZM684.163 8.91797H683.163V40.1387H684.163H685.163V8.91797H684.163ZM684.163 40.1387V39.1387H662V40.1387V41.1387H684.163V40.1387ZM662 40.1387H663V26.7627H662H661V40.1387H662ZM662 26.7627V27.7627H670.865V26.7627V25.7627H662V26.7627ZM670.865 26.7627H671.865V22.3037H670.865H669.865V26.7627H670.865ZM670.865 22.3037V21.3037H657.558V22.3037V23.3037H670.865V22.3037ZM657.558 22.3037H656.558V44.5977H657.558H658.558V22.3037H657.558ZM657.558 44.5977V45.5977H688.596V44.5977V43.5977H657.558V44.5977ZM688.596 44.5977H689.596V8.91797H688.596H687.596V44.5977H688.596ZM688.596 8.91797V9.91797H728.5V8.91797V7.91797H688.596V8.91797ZM728.5 8.91797H727.5V40.1387H728.5H729.5V8.91797H728.5ZM728.5 40.1387V39.1387H706.337V40.1387V41.1387H728.5V40.1387ZM706.337 40.1387H707.337V26.7627H706.337H705.337V40.1387H706.337ZM706.337 26.7627V27.7627H715.202V26.7627V25.7627H706.337V26.7627ZM715.202 26.7627H716.202V22.3037H715.202H714.202V26.7627H715.202ZM715.202 22.3037V21.3037H701.904V22.3037V23.3037H715.202V22.3037ZM701.904 22.3037H700.904V44.5977H701.904H702.904V22.3037H701.904ZM701.904 44.5977V45.5977H732.933V44.5977V43.5977H701.904V44.5977ZM732.933 44.5977H733.933V8.91797H732.933H731.933V44.5977H732.933ZM732.933 8.91797V9.91797H772.827V8.91797V7.91797H732.933V8.91797ZM772.827 8.91797H771.827V40.1387H772.827H773.827V8.91797H772.827ZM772.827 40.1387V39.1387H750.663V40.1387V41.1387H772.827V40.1387ZM750.663 40.1387H751.663V26.7627H750.663H749.663V40.1387H750.663ZM750.663 26.7627V27.7627H759.529V26.7627V25.7627H750.663V26.7627ZM759.529 26.7627H760.529V22.3037H759.529H758.529V26.7627H759.529ZM759.529 22.3037V21.3037H746.23V22.3037V23.3037H759.529V22.3037ZM746.23 22.3037H745.23V44.5977H746.23H747.23V22.3037H746.23ZM746.23 44.5977V45.5977H777.26V44.5977V43.5977H746.23V44.5977ZM777.26 44.5977H778.26V8.91797H777.26H776.26V44.5977H777.26ZM777.26 8.91797V9.91797H817.163V8.91797V7.91797H777.26V8.91797ZM817.163 8.91797H816.163V40.1387H817.163H818.163V8.91797H817.163ZM817.163 40.1387V39.1387H795V40.1387V41.1387H817.163V40.1387ZM795 40.1387H796V26.7627H795H794V40.1387H795ZM795 26.7627V27.7627H803.865V26.7627V25.7627H795V26.7627ZM803.865 26.7627H804.865V22.3037H803.865H802.865V26.7627H803.865ZM803.865 22.3037V21.3037H790.558V22.3037V23.3037H803.865V22.3037ZM790.558 22.3037H789.558V44.5977H790.558H791.558V22.3037H790.558ZM790.558 44.5977V45.5977H821.596V44.5977V43.5977H790.558V44.5977ZM821.596 44.5977H822.596V8.91797H821.596H820.596V44.5977H821.596ZM821.596 8.91797V9.91797H861.5V8.91797V7.91797H821.596V8.91797ZM861.5 8.91797H860.5V40.1387H861.5H862.5V8.91797H861.5ZM861.5 40.1387V39.1387H839.337V40.1387V41.1387H861.5V40.1387ZM839.337 40.1387H840.337V26.7627H839.337H838.337V40.1387H839.337ZM839.337 26.7627V27.7627H848.202V26.7627V25.7627H839.337V26.7627ZM848.202 26.7627H849.202V22.3037H848.202H847.202V26.7627H848.202ZM848.202 22.3037V21.3037H834.904V22.3037V23.3037H848.202V22.3037ZM834.904 22.3037H833.904V44.5977H834.904H835.904V22.3037H834.904ZM834.904 44.5977V45.5977H865.933V44.5977V43.5977H834.904V44.5977ZM865.933 44.5977H866.933V8.91797H865.933H864.933V44.5977H865.933ZM865.933 8.91797V9.91797H905.827V8.91797V7.91797H865.933V8.91797ZM905.827 8.91797H904.827V40.1387H905.827H906.827V8.91797H905.827ZM905.827 40.1387V39.1387H883.663V40.1387V41.1387H905.827V40.1387ZM883.663 40.1387H884.663V26.7627H883.663H882.663V40.1387H883.663ZM883.663 26.7627V27.7627H892.529V26.7627V25.7627H883.663V26.7627ZM892.529 26.7627H893.529V22.3037H892.529H891.529V26.7627H892.529ZM892.529 22.3037V21.3037H879.23V22.3037V23.3037H892.529V22.3037ZM879.23 22.3037H878.23V44.5977H879.23H880.23V22.3037H879.23ZM879.23 44.5977V45.5977H910.26V44.5977V43.5977H879.23V44.5977ZM910.26 44.5977H911.26V8.91797H910.26H909.26V44.5977H910.26ZM910.26 8.91797V9.91797H950.163V8.91797V7.91797H910.26V8.91797ZM950.163 8.91797H949.163V40.1387H950.163H951.163V8.91797H950.163ZM950.163 40.1387V39.1387H928V40.1387V41.1387H950.163V40.1387ZM928 40.1387H929V26.7627H928H927V40.1387H928ZM928 26.7627V27.7627H936.865V26.7627V25.7627H928V26.7627ZM936.865 26.7627H937.865V22.3037H936.865H935.865V26.7627H936.865ZM936.865 22.3037V21.3037H923.558V22.3037V23.3037H936.865V22.3037ZM923.558 22.3037H922.558V44.5977H923.558H924.558V22.3037H923.558ZM923.558 44.5977V45.5977H954.596V44.5977V43.5977H923.558V44.5977ZM954.596 44.5977H955.596V8.91797H954.596H953.596V44.5977H954.596ZM954.596 8.91797V9.91797H994.5V8.91797V7.91797H954.596V8.91797ZM994.5 8.91797H993.5V40.1387H994.5H995.5V8.91797H994.5ZM994.5 40.1387V39.1387H972.337V40.1387V41.1387H994.5V40.1387ZM972.337 40.1387H973.337V26.7627H972.337H971.337V40.1387H972.337ZM972.337 26.7627V27.7627H981.202V26.7627V25.7627H972.337V26.7627ZM981.202 26.7627H982.202V22.3037H981.202H980.202V26.7627H981.202ZM981.202 22.3037V21.3037H967.904V22.3037V23.3037H981.202V22.3037ZM967.904 22.3037H966.904V44.5977H967.904H968.904V22.3037H967.904ZM967.904 44.5977V45.5977H998.933V44.5977V43.5977H967.904V44.5977ZM998.933 44.5977H999.933V8.91797H998.933H997.933V44.5977H998.933ZM998.933 8.91797V9.91797H1038.83V8.91797V7.91797H998.933V8.91797ZM1038.83 8.91797H1037.83V40.1387H1038.83H1039.83V8.91797H1038.83ZM1038.83 40.1387V39.1387H1016.66V40.1387V41.1387H1038.83V40.1387ZM1016.66 40.1387H1017.66V26.7627H1016.66H1015.66V40.1387H1016.66ZM1016.66 26.7627V27.7627H1025.53V26.7627V25.7627H1016.66V26.7627ZM1025.53 26.7627H1026.53V22.3037H1025.53H1024.53V26.7627H1025.53ZM1025.53 22.3037V21.3037H1012.23V22.3037V23.3037H1025.53V22.3037ZM1012.23 22.3037H1011.23V44.5977H1012.23H1013.23V22.3037H1012.23ZM1012.23 44.5977V45.5977H1043.26V44.5977V43.5977H1012.23V44.5977ZM1043.26 44.5977H1044.26V8.91797H1043.26H1042.26V44.5977H1043.26ZM1043.26 8.91797V9.91797H1083.16V8.91797V7.91797H1043.26V8.91797ZM1083.16 8.91797H1082.16V40.1387H1083.16H1084.16V8.91797H1083.16ZM1083.16 40.1387V39.1387H1061V40.1387V41.1387H1083.16V40.1387ZM1061 40.1387H1062V26.7627H1061H1060V40.1387H1061ZM1061 26.7627V27.7627H1069.87V26.7627V25.7627H1061V26.7627ZM1069.87 26.7627H1070.87V22.3037H1069.87H1068.87V26.7627H1069.87ZM1069.87 22.3037V21.3037H1056.56V22.3037V23.3037H1069.87V22.3037ZM1056.56 22.3037H1055.56V44.5977H1056.56H1057.56V22.3037H1056.56ZM1056.56 44.5977V45.5977H1087.6V44.5977V43.5977H1056.56V44.5977ZM1087.6 44.5977H1088.6V8.91797H1087.6H1086.6V44.5977H1087.6ZM1087.6 8.91797V9.91797H1127.5V8.91797V7.91797H1087.6V8.91797ZM1127.5 8.91797H1126.5V40.1387H1127.5H1128.5V8.91797H1127.5ZM1127.5 40.1387V39.1387H1105.34V40.1387V41.1387H1127.5V40.1387ZM1105.34 40.1387H1106.34V26.7627H1105.34H1104.34V40.1387H1105.34ZM1105.34 26.7627V27.7627H1114.2V26.7627V25.7627H1105.34V26.7627ZM1114.2 26.7627H1115.2V22.3037H1114.2H1113.2V26.7627H1114.2ZM1114.2 22.3037V21.3037H1100.9V22.3037V23.3037H1114.2V22.3037ZM1100.9 22.3037H1099.9V44.5977H1100.9H1101.9V22.3037H1100.9ZM1100.9 44.5977V45.5977H1131.93V44.5977V43.5977H1100.9V44.5977ZM1131.93 44.5977H1132.93V8.91797H1131.93H1130.93V44.5977H1131.93ZM1131.93 8.91797V9.91797H1171.83V8.91797V7.91797H1131.93V8.91797ZM1171.83 8.91797H1170.83V40.1387H1171.83H1172.83V8.91797H1171.83ZM1171.83 40.1387V39.1387H1149.66V40.1387V41.1387H1171.83V40.1387ZM1149.66 40.1387H1150.66V26.7627H1149.66H1148.66V40.1387H1149.66ZM1149.66 26.7627V27.7627H1158.53V26.7627V25.7627H1149.66V26.7627ZM1158.53 26.7627H1159.53V22.3037H1158.53H1157.53V26.7627H1158.53ZM1158.53 22.3037V21.3037H1145.23V22.3037V23.3037H1158.53V22.3037ZM1145.23 22.3037H1144.23V44.5977H1145.23H1146.23V22.3037H1145.23ZM1145.23 44.5977V45.5977H1176.26V44.5977V43.5977H1145.23V44.5977ZM1176.26 44.5977H1177.26V8.91797H1176.26H1175.26V44.5977H1176.26ZM1176.26 8.91797V9.91797H1216.16V8.91797V7.91797H1176.26V8.91797ZM1216.16 8.91797H1215.16V40.1387H1216.16H1217.16V8.91797H1216.16ZM1216.16 40.1387V39.1387H1194V40.1387V41.1387H1216.16V40.1387ZM1194 40.1387H1195V26.7627H1194H1193V40.1387H1194ZM1194 26.7627V27.7627H1202.87V26.7627V25.7627H1194V26.7627ZM1202.87 26.7627H1203.87V22.3037H1202.87H1201.87V26.7627H1202.87ZM1202.87 22.3037V21.3037H1189.56V22.3037V23.3037H1202.87V22.3037ZM1189.56 22.3037H1188.56V44.5977H1189.56H1190.56V22.3037H1189.56ZM1189.56 44.5977V45.5977H1220.6V44.5977V43.5977H1189.56V44.5977ZM1220.6 44.5977H1221.6V8.91797H1220.6H1219.6V44.5977H1220.6ZM1220.6 8.91797V9.91797H1260.5V8.91797V7.91797H1220.6V8.91797ZM1260.5 8.91797H1259.5V40.1387H1260.5H1261.5V8.91797H1260.5ZM1260.5 40.1387V39.1387H1238.34V40.1387V41.1387H1260.5V40.1387ZM1238.34 40.1387H1239.34V26.7627H1238.34H1237.34V40.1387H1238.34ZM1238.34 26.7627V27.7627H1247.2V26.7627V25.7627H1238.34V26.7627ZM1247.2 26.7627H1248.2V22.3037H1247.2H1246.2V26.7627H1247.2ZM1247.2 22.3037V21.3037H1233.9V22.3037V23.3037H1247.2V22.3037ZM1233.9 22.3037H1232.9V44.5977H1233.9H1234.9V22.3037H1233.9ZM1233.9 44.5977V45.5977H1264.93V44.5977V43.5977H1233.9V44.5977ZM1264.93 44.5977H1265.93V8.91797H1264.93H1263.93V44.5977H1264.93ZM1264.93 8.91797V9.91797H1304.83V8.91797V7.91797H1264.93V8.91797ZM1304.83 8.91797H1303.83V40.1387H1304.83H1305.83V8.91797H1304.83ZM1304.83 40.1387V39.1387H1282.66V40.1387V41.1387H1304.83V40.1387ZM1282.66 40.1387H1283.66V26.7627H1282.66H1281.66V40.1387H1282.66ZM1282.66 26.7627V27.7627H1291.53V26.7627V25.7627H1282.66V26.7627ZM1291.53 26.7627H1292.53V22.3037H1291.53H1290.53V26.7627H1291.53ZM1291.53 22.3037V21.3037H1278.23V22.3037V23.3037H1291.53V22.3037ZM1278.23 22.3037H1277.23V44.5977H1278.23H1279.23V22.3037H1278.23ZM1278.23 44.5977V45.5977H1309.26V44.5977V43.5977H1278.23V44.5977ZM1309.26 44.5977H1310.26V8.91797H1309.26H1308.26V44.5977H1309.26ZM1309.26 8.91797V9.91797H1349.16V8.91797V7.91797H1309.26V8.91797ZM1349.16 8.91797H1348.16V40.1387H1349.16H1350.16V8.91797H1349.16ZM1349.16 40.1387V39.1387H1327V40.1387V41.1387H1349.16V40.1387ZM1327 40.1387H1328V26.7627H1327H1326V40.1387H1327ZM1327 26.7627V27.7627H1335.87V26.7627V25.7627H1327V26.7627ZM1335.87 26.7627H1336.87V22.3037H1335.87H1334.87V26.7627H1335.87ZM1335.87 22.3037V21.3037H1322.56V22.3037V23.3037H1335.87V22.3037ZM1322.56 22.3037H1321.56V44.5977H1322.56H1323.56V22.3037H1322.56ZM1322.56 44.5977V45.5977H1353.6V44.5977V43.5977H1322.56V44.5977ZM1353.6 44.5977H1354.6V8.91797H1353.6H1352.6V44.5977H1353.6ZM1353.6 8.91797V9.91797H1393.5V8.91797V7.91797H1353.6V8.91797ZM1393.5 8.91797H1392.5V40.1387H1393.5H1394.5V8.91797H1393.5ZM1393.5 40.1387V39.1387H1371.34V40.1387V41.1387H1393.5V40.1387ZM1371.34 40.1387H1372.34V26.7627H1371.34H1370.34V40.1387H1371.34ZM1371.34 26.7627V27.7627H1380.2V26.7627V25.7627H1371.34V26.7627ZM1380.2 26.7627H1381.2V22.3037H1380.2H1379.2V26.7627H1380.2ZM1380.2 22.3037V21.3037H1366.9V22.3037V23.3037H1380.2V22.3037ZM1366.9 22.3037H1365.9V44.5977H1366.9H1367.9V22.3037H1366.9ZM1366.9 44.5977V45.5977H1397.93V44.5977V43.5977H1366.9V44.5977ZM1397.93 44.5977H1398.93V8.91797H1397.93H1396.93V44.5977H1397.93ZM1397.93 8.91797V9.91797H1437.83V8.91797V7.91797H1397.93V8.91797ZM1437.83 8.91797H1436.83V40.1387H1437.83H1438.83V8.91797H1437.83ZM1437.83 40.1387V39.1387H1415.66V40.1387V41.1387H1437.83V40.1387ZM1415.66 40.1387H1416.66V26.7627H1415.66H1414.66V40.1387H1415.66ZM1415.66 26.7627V27.7627H1424.53V26.7627V25.7627H1415.66V26.7627ZM1424.53 26.7627H1425.53V22.3037H1424.53H1423.53V26.7627H1424.53ZM1424.53 22.3037V21.3037H1411.23V22.3037V23.3037H1424.53V22.3037ZM1411.23 22.3037H1410.23V44.5977H1411.23H1412.23V22.3037H1411.23ZM1411.23 44.5977V45.5977H1442.26V44.5977V43.5977H1411.23V44.5977ZM1442.26 44.5977H1443.26V8.91797H1442.26H1441.26V44.5977H1442.26ZM1442.26 8.91797V9.91797H1460V8.91797V7.91797H1442.26V8.91797ZM1460 8.91797H1459V13.3857H1460H1461V8.91797H1460ZM1460 13.3857V12.3857H1446.69V13.3857V14.3857H1460V13.3857ZM1446.69 13.3857H1445.69V49.0566H1446.69H1447.69V13.3857H1446.69ZM1446.69 49.0566V48.0566H1406.8V49.0566V50.0566H1446.69V49.0566ZM1406.8 49.0566H1407.8V17.8447H1406.8H1405.8V49.0566H1406.8ZM1406.8 17.8447V18.8447H1428.96V17.8447V16.8447H1406.8V17.8447ZM1428.96 17.8447H1427.96V31.2217H1428.96H1429.96V17.8447H1428.96ZM1428.96 31.2217V30.2217H1420.1V31.2217V32.2217H1428.96V31.2217ZM1420.1 31.2217H1419.1V35.6807H1420.1H1421.1V31.2217H1420.1ZM1420.1 35.6807V36.6807H1433.39V35.6807V34.6807H1420.1V35.6807ZM1433.39 35.6807H1434.39V13.3857H1433.39H1432.39V35.6807H1433.39ZM1433.39 13.3857V12.3857H1402.37V13.3857V14.3857H1433.39V13.3857ZM1402.37 13.3857H1401.37V49.0566H1402.37H1403.37V13.3857H1402.37ZM1402.37 49.0566V48.0566H1362.47V49.0566V50.0566H1402.37V49.0566ZM1362.47 49.0566H1363.47V17.8447H1362.47H1361.47V49.0566H1362.47ZM1362.47 17.8447V18.8447H1384.63V17.8447V16.8447H1362.47V17.8447ZM1384.63 17.8447H1383.63V31.2217H1384.63H1385.63V17.8447H1384.63ZM1384.63 31.2217V30.2217H1375.77V31.2217V32.2217H1384.63V31.2217ZM1375.77 31.2217H1374.77V35.6807H1375.77H1376.77V31.2217H1375.77ZM1375.77 35.6807V36.6807H1389.07V35.6807V34.6807H1375.77V35.6807ZM1389.07 35.6807H1390.07V13.3857H1389.07H1388.07V35.6807H1389.07ZM1389.07 13.3857V12.3857H1358.04V13.3857V14.3857H1389.07V13.3857ZM1358.04 13.3857H1357.04V49.0566H1358.04H1359.04V13.3857H1358.04ZM1358.04 49.0566V48.0566H1318.12V49.0566V50.0566H1358.04V49.0566ZM1318.12 49.0566H1319.12V17.8447H1318.12H1317.12V49.0566H1318.12ZM1318.12 17.8447V18.8447H1340.3V17.8447V16.8447H1318.12V17.8447ZM1340.3 17.8447H1339.3V31.2217H1340.3H1341.3V17.8447H1340.3ZM1340.3 31.2217V30.2217H1331.43V31.2217V32.2217H1340.3V31.2217ZM1331.43 31.2217H1330.43V35.6807H1331.43H1332.43V31.2217H1331.43ZM1331.43 35.6807V36.6807H1344.73V35.6807V34.6807H1331.43V35.6807ZM1344.73 35.6807H1345.73V13.3857H1344.73H1343.73V35.6807H1344.73ZM1344.73 13.3857V12.3857H1313.69V13.3857V14.3857H1344.73V13.3857ZM1313.69 13.3857H1312.69V49.0566H1313.69H1314.69V13.3857H1313.69ZM1313.69 49.0566V48.0566H1273.8V49.0566V50.0566H1313.69V49.0566ZM1273.8 49.0566H1274.8V17.8447H1273.8H1272.8V49.0566H1273.8ZM1273.8 17.8447V18.8447H1295.96V17.8447V16.8447H1273.8V17.8447ZM1295.96 17.8447H1294.96V31.2217H1295.96H1296.96V17.8447H1295.96ZM1295.96 31.2217V30.2217H1287.1V31.2217V32.2217H1295.96V31.2217ZM1287.1 31.2217H1286.1V35.6807H1287.1H1288.1V31.2217H1287.1ZM1287.1 35.6807V36.6807H1300.39V35.6807V34.6807H1287.1V35.6807ZM1300.39 35.6807H1301.39V13.3857H1300.39H1299.39V35.6807H1300.39ZM1300.39 13.3857V12.3857H1269.37V13.3857V14.3857H1300.39V13.3857ZM1269.37 13.3857H1268.37V49.0566H1269.37H1270.37V13.3857H1269.37ZM1269.37 49.0566V48.0566H1229.47V49.0566V50.0566H1269.37V49.0566ZM1229.47 49.0566H1230.47V17.8447H1229.47H1228.47V49.0566H1229.47ZM1229.47 17.8447V18.8447H1251.63V17.8447V16.8447H1229.47V17.8447ZM1251.63 17.8447H1250.63V31.2217H1251.63H1252.63V17.8447H1251.63ZM1251.63 31.2217V30.2217H1242.77V31.2217V32.2217H1251.63V31.2217ZM1242.77 31.2217H1241.77V35.6807H1242.77H1243.77V31.2217H1242.77ZM1242.77 35.6807V36.6807H1256.07V35.6807V34.6807H1242.77V35.6807ZM1256.07 35.6807H1257.07V13.3857H1256.07H1255.07V35.6807H1256.07ZM1256.07 13.3857V12.3857H1225.04V13.3857V14.3857H1256.07V13.3857ZM1225.04 13.3857H1224.04V49.0566H1225.04H1226.04V13.3857H1225.04ZM1225.04 49.0566V48.0566H1185.12V49.0566V50.0566H1225.04V49.0566ZM1185.12 49.0566H1186.12V17.8447H1185.12H1184.12V49.0566H1185.12ZM1185.12 17.8447V18.8447H1207.3V17.8447V16.8447H1185.12V17.8447ZM1207.3 17.8447H1206.3V31.2217H1207.3H1208.3V17.8447H1207.3ZM1207.3 31.2217V30.2217H1198.43V31.2217V32.2217H1207.3V31.2217ZM1198.43 31.2217H1197.43V35.6807H1198.43H1199.43V31.2217H1198.43ZM1198.43 35.6807V36.6807H1211.73V35.6807V34.6807H1198.43V35.6807ZM1211.73 35.6807H1212.73V13.3857H1211.73H1210.73V35.6807H1211.73ZM1211.73 13.3857V12.3857H1180.69V13.3857V14.3857H1211.73V13.3857ZM1180.69 13.3857H1179.69V49.0566H1180.69H1181.69V13.3857H1180.69ZM1180.69 49.0566V48.0566H1140.8V49.0566V50.0566H1180.69V49.0566ZM1140.8 49.0566H1141.8V17.8447H1140.8H1139.8V49.0566H1140.8ZM1140.8 17.8447V18.8447H1162.96V17.8447V16.8447H1140.8V17.8447ZM1162.96 17.8447H1161.96V31.2217H1162.96H1163.96V17.8447H1162.96ZM1162.96 31.2217V30.2217H1154.1V31.2217V32.2217H1162.96V31.2217ZM1154.1 31.2217H1153.1V35.6807H1154.1H1155.1V31.2217H1154.1ZM1154.1 35.6807V36.6807H1167.39V35.6807V34.6807H1154.1V35.6807ZM1167.39 35.6807H1168.39V13.3857H1167.39H1166.39V35.6807H1167.39ZM1167.39 13.3857V12.3857H1136.37V13.3857V14.3857H1167.39V13.3857ZM1136.37 13.3857H1135.37V49.0566H1136.37H1137.37V13.3857H1136.37ZM1136.37 49.0566V48.0566H1096.47V49.0566V50.0566H1136.37V49.0566ZM1096.47 49.0566H1097.47V17.8447H1096.47H1095.47V49.0566H1096.47ZM1096.47 17.8447V18.8447H1118.63V17.8447V16.8447H1096.47V17.8447ZM1118.63 17.8447H1117.63V31.2217H1118.63H1119.63V17.8447H1118.63ZM1118.63 31.2217V30.2217H1109.77V31.2217V32.2217H1118.63V31.2217ZM1109.77 31.2217H1108.77V35.6807H1109.77H1110.77V31.2217H1109.77ZM1109.77 35.6807V36.6807H1123.07V35.6807V34.6807H1109.77V35.6807ZM1123.07 35.6807H1124.07V13.3857H1123.07H1122.07V35.6807H1123.07ZM1123.07 13.3857V12.3857H1092.04V13.3857V14.3857H1123.07V13.3857ZM1092.04 13.3857H1091.04V49.0566H1092.04H1093.04V13.3857H1092.04ZM1092.04 49.0566V48.0566H1052.12V49.0566V50.0566H1092.04V49.0566ZM1052.12 49.0566H1053.12V17.8447H1052.12H1051.12V49.0566H1052.12ZM1052.12 17.8447V18.8447H1074.3V17.8447V16.8447H1052.12V17.8447ZM1074.3 17.8447H1073.3V31.2217H1074.3H1075.3V17.8447H1074.3ZM1074.3 31.2217V30.2217H1065.43V31.2217V32.2217H1074.3V31.2217ZM1065.43 31.2217H1064.43V35.6807H1065.43H1066.43V31.2217H1065.43ZM1065.43 35.6807V36.6807H1078.73V35.6807V34.6807H1065.43V35.6807ZM1078.73 35.6807H1079.73V13.3857H1078.73H1077.73V35.6807H1078.73ZM1078.73 13.3857V12.3857H1047.69V13.3857V14.3857H1078.73V13.3857ZM1047.69 13.3857H1046.69V49.0566H1047.69H1048.69V13.3857H1047.69ZM1047.69 49.0566V48.0566H1007.8V49.0566V50.0566H1047.69V49.0566ZM1007.8 49.0566H1008.8V17.8447H1007.8H1006.8V49.0566H1007.8ZM1007.8 17.8447V18.8447H1029.96V17.8447V16.8447H1007.8V17.8447ZM1029.96 17.8447H1028.96V31.2217H1029.96H1030.96V17.8447H1029.96ZM1029.96 31.2217V30.2217H1021.1V31.2217V32.2217H1029.96V31.2217ZM1021.1 31.2217H1020.1V35.6807H1021.1H1022.1V31.2217H1021.1ZM1021.1 35.6807V36.6807H1034.39V35.6807V34.6807H1021.1V35.6807ZM1034.39 35.6807H1035.39V13.3857H1034.39H1033.39V35.6807H1034.39ZM1034.39 13.3857V12.3857H1003.37V13.3857V14.3857H1034.39V13.3857ZM1003.37 13.3857H1002.37V49.0566H1003.37H1004.37V13.3857H1003.37ZM1003.37 49.0566V48.0566H963.471V49.0566V50.0566H1003.37V49.0566ZM963.471 49.0566H964.471V17.8447H963.471H962.471V49.0566H963.471ZM963.471 17.8447V18.8447H985.635V17.8447V16.8447H963.471V17.8447ZM985.635 17.8447H984.635V31.2217H985.635H986.635V17.8447H985.635ZM985.635 31.2217V30.2217H976.77V31.2217V32.2217H985.635V31.2217ZM976.77 31.2217H975.77V35.6807H976.77H977.77V31.2217H976.77ZM976.77 35.6807V36.6807H990.067V35.6807V34.6807H976.77V35.6807ZM990.067 35.6807H991.067V13.3857H990.067H989.067V35.6807H990.067ZM990.067 13.3857V12.3857H959.038V13.3857V14.3857H990.067V13.3857ZM959.038 13.3857H958.038V49.0566H959.038H960.038V13.3857H959.038ZM959.038 49.0566V48.0566H919.125V49.0566V50.0566H959.038V49.0566ZM919.125 49.0566H920.125V17.8447H919.125H918.125V49.0566H919.125ZM919.125 17.8447V18.8447H941.298V17.8447V16.8447H919.125V17.8447ZM941.298 17.8447H940.298V31.2217H941.298H942.298V17.8447H941.298ZM941.298 31.2217V30.2217H932.433V31.2217V32.2217H941.298V31.2217ZM932.433 31.2217H931.433V35.6807H932.433H933.433V31.2217H932.433ZM932.433 35.6807V36.6807H945.73V35.6807V34.6807H932.433V35.6807ZM945.73 35.6807H946.73V13.3857H945.73H944.73V35.6807H945.73ZM945.73 13.3857V12.3857H914.692V13.3857V14.3857H945.73V13.3857ZM914.692 13.3857H913.692V49.0566H914.692H915.692V13.3857H914.692ZM914.692 49.0566V48.0566H874.798V49.0566V50.0566H914.692V49.0566ZM874.798 49.0566H875.798V17.8447H874.798H873.798V49.0566H874.798ZM874.798 17.8447V18.8447H896.962V17.8447V16.8447H874.798V17.8447ZM896.962 17.8447H895.962V31.2217H896.962H897.962V17.8447H896.962ZM896.962 31.2217V30.2217H888.096V31.2217V32.2217H896.962V31.2217ZM888.096 31.2217H887.096V35.6807H888.096H889.096V31.2217H888.096ZM888.096 35.6807V36.6807H901.395V35.6807V34.6807H888.096V35.6807ZM901.395 35.6807H902.395V13.3857H901.395H900.395V35.6807H901.395ZM901.395 13.3857V12.3857H870.365V13.3857V14.3857H901.395V13.3857ZM870.365 13.3857H869.365V49.0566H870.365H871.365V13.3857H870.365ZM870.365 49.0566V48.0566H830.471V49.0566V50.0566H870.365V49.0566ZM830.471 49.0566H831.471V17.8447H830.471H829.471V49.0566H830.471ZM830.471 17.8447V18.8447H852.635V17.8447V16.8447H830.471V17.8447ZM852.635 17.8447H851.635V31.2217H852.635H853.635V17.8447H852.635ZM852.635 31.2217V30.2217H843.77V31.2217V32.2217H852.635V31.2217ZM843.77 31.2217H842.77V35.6807H843.77H844.77V31.2217H843.77ZM843.77 35.6807V36.6807H857.067V35.6807V34.6807H843.77V35.6807ZM857.067 35.6807H858.067V13.3857H857.067H856.067V35.6807H857.067ZM857.067 13.3857V12.3857H826.038V13.3857V14.3857H857.067V13.3857ZM826.038 13.3857H825.038V49.0566H826.038H827.038V13.3857H826.038ZM826.038 49.0566V48.0566H786.125V49.0566V50.0566H826.038V49.0566ZM786.125 49.0566H787.125V17.8447H786.125H785.125V49.0566H786.125ZM786.125 17.8447V18.8447H808.298V17.8447V16.8447H786.125V17.8447ZM808.298 17.8447H807.298V31.2217H808.298H809.298V17.8447H808.298ZM808.298 31.2217V30.2217H799.433V31.2217V32.2217H808.298V31.2217ZM799.433 31.2217H798.433V35.6807H799.433H800.433V31.2217H799.433ZM799.433 35.6807V36.6807H812.73V35.6807V34.6807H799.433V35.6807ZM812.73 35.6807H813.73V13.3857H812.73H811.73V35.6807H812.73ZM812.73 13.3857V12.3857H781.692V13.3857V14.3857H812.73V13.3857ZM781.692 13.3857H780.692V49.0566H781.692H782.692V13.3857H781.692ZM781.692 49.0566V48.0566H741.798V49.0566V50.0566H781.692V49.0566ZM741.798 49.0566H742.798V17.8447H741.798H740.798V49.0566H741.798ZM741.798 17.8447V18.8447H763.962V17.8447V16.8447H741.798V17.8447ZM763.962 17.8447H762.962V31.2217H763.962H764.962V17.8447H763.962ZM763.962 31.2217V30.2217H755.096V31.2217V32.2217H763.962V31.2217ZM755.096 31.2217H754.096V35.6807H755.096H756.096V31.2217H755.096ZM755.096 35.6807V36.6807H768.395V35.6807V34.6807H755.096V35.6807ZM768.395 35.6807H769.395V13.3857H768.395H767.395V35.6807H768.395ZM768.395 13.3857V12.3857H737.365V13.3857V14.3857H768.395V13.3857ZM737.365 13.3857H736.365V49.0566H737.365H738.365V13.3857H737.365ZM737.365 49.0566V48.0566H697.471V49.0566V50.0566H737.365V49.0566ZM697.471 49.0566H698.471V17.8447H697.471H696.471V49.0566H697.471ZM697.471 17.8447V18.8447H719.635V17.8447V16.8447H697.471V17.8447ZM719.635 17.8447H718.635V31.2217H719.635H720.635V17.8447H719.635ZM719.635 31.2217V30.2217H710.77V31.2217V32.2217H719.635V31.2217ZM710.77 31.2217H709.77V35.6807H710.77H711.77V31.2217H710.77ZM710.77 35.6807V36.6807H724.067V35.6807V34.6807H710.77V35.6807ZM724.067 35.6807H725.067V13.3857H724.067H723.067V35.6807H724.067ZM724.067 13.3857V12.3857H693.038V13.3857V14.3857H724.067V13.3857ZM693.038 13.3857H692.038V49.0566H693.038H694.038V13.3857H693.038ZM693.038 49.0566V48.0566H653.125V49.0566V50.0566H693.038V49.0566ZM653.125 49.0566H654.125V17.8447H653.125H652.125V49.0566H653.125ZM653.125 17.8447V18.8447H675.298V17.8447V16.8447H653.125V17.8447ZM675.298 17.8447H674.298V31.2217H675.298H676.298V17.8447H675.298ZM675.298 31.2217V30.2217H666.433V31.2217V32.2217H675.298V31.2217ZM666.433 31.2217H665.433V35.6807H666.433H667.433V31.2217H666.433ZM666.433 35.6807V36.6807H679.73V35.6807V34.6807H666.433V35.6807ZM679.73 35.6807H680.73V13.3857H679.73H678.73V35.6807H679.73ZM679.73 13.3857V12.3857H648.692V13.3857V14.3857H679.73V13.3857ZM648.692 13.3857H647.692V49.0566H648.692H649.692V13.3857H648.692ZM648.692 49.0566V48.0566H608.798V49.0566V50.0566H648.692V49.0566ZM608.798 49.0566H609.798V17.8447H608.798H607.798V49.0566H608.798ZM608.798 17.8447V18.8447H630.962V17.8447V16.8447H608.798V17.8447ZM630.962 17.8447H629.962V31.2217H630.962H631.962V17.8447H630.962ZM630.962 31.2217V30.2217H622.096V31.2217V32.2217H630.962V31.2217ZM622.096 31.2217H621.096V35.6807H622.096H623.096V31.2217H622.096ZM622.096 35.6807V36.6807H635.395V35.6807V34.6807H622.096V35.6807ZM635.395 35.6807H636.395V13.3857H635.395H634.395V35.6807H635.395ZM635.395 13.3857V12.3857H604.365V13.3857V14.3857H635.395V13.3857ZM604.365 13.3857H603.365V49.0566H604.365H605.365V13.3857H604.365ZM604.365 49.0566V48.0566H564.471V49.0566V50.0566H604.365V49.0566ZM564.471 49.0566H565.471V17.8447H564.471H563.471V49.0566H564.471ZM564.471 17.8447V18.8447H586.635V17.8447V16.8447H564.471V17.8447ZM586.635 17.8447H585.635V31.2217H586.635H587.635V17.8447H586.635ZM586.635 31.2217V30.2217H577.77V31.2217V32.2217H586.635V31.2217ZM577.77 31.2217H576.77V35.6807H577.77H578.77V31.2217H577.77ZM577.77 35.6807V36.6807H591.067V35.6807V34.6807H577.77V35.6807ZM591.067 35.6807H592.067V13.3857H591.067H590.067V35.6807H591.067ZM591.067 13.3857V12.3857H560.038V13.3857V14.3857H591.067V13.3857ZM560.038 13.3857H559.038V49.0566H560.038H561.038V13.3857H560.038ZM560.038 49.0566V48.0566H520.125V49.0566V50.0566H560.038V49.0566ZM520.125 49.0566H521.125V17.8447H520.125H519.125V49.0566H520.125ZM520.125 17.8447V18.8447H542.298V17.8447V16.8447H520.125V17.8447ZM542.298 17.8447H541.298V31.2217H542.298H543.298V17.8447H542.298ZM542.298 31.2217V30.2217H533.433V31.2217V32.2217H542.298V31.2217ZM533.433 31.2217H532.433V35.6807H533.433H534.433V31.2217H533.433ZM533.433 35.6807V36.6807H546.73V35.6807V34.6807H533.433V35.6807ZM546.73 35.6807H547.73V13.3857H546.73H545.73V35.6807H546.73ZM546.73 13.3857V12.3857H515.692V13.3857V14.3857H546.73V13.3857ZM515.692 13.3857H514.692V49.0566H515.692H516.692V13.3857H515.692ZM515.692 49.0566V48.0566H475.798V49.0566V50.0566H515.692V49.0566ZM475.798 49.0566H476.798V17.8447H475.798H474.798V49.0566H475.798ZM475.798 17.8447V18.8447H497.962V17.8447V16.8447H475.798V17.8447ZM497.962 17.8447H496.962V31.2217H497.962H498.962V17.8447H497.962ZM497.962 31.2217V30.2217H489.096V31.2217V32.2217H497.962V31.2217ZM489.096 31.2217H488.096V35.6807H489.096H490.096V31.2217H489.096ZM489.096 35.6807V36.6807H502.395V35.6807V34.6807H489.096V35.6807ZM502.395 35.6807H503.395V13.3857H502.395H501.395V35.6807H502.395ZM502.395 13.3857V12.3857H471.365V13.3857V14.3857H502.395V13.3857ZM471.365 13.3857H470.365V49.0566H471.365H472.365V13.3857H471.365ZM471.365 49.0566V48.0566H431.471V49.0566V50.0566H471.365V49.0566ZM431.471 49.0566H432.471V17.8447H431.471H430.471V49.0566H431.471ZM431.471 17.8447V18.8447H453.635V17.8447V16.8447H431.471V17.8447ZM453.635 17.8447H452.635V31.2217H453.635H454.635V17.8447H453.635ZM453.635 31.2217V30.2217H444.77V31.2217V32.2217H453.635V31.2217ZM444.77 31.2217H443.77V35.6807H444.77H445.77V31.2217H444.77ZM444.77 35.6807V36.6807H458.067V35.6807V34.6807H444.77V35.6807ZM458.067 35.6807H459.067V13.3857H458.067H457.067V35.6807H458.067ZM458.067 13.3857V12.3857H427.038V13.3857V14.3857H458.067V13.3857ZM427.038 13.3857H426.038V49.0566H427.038H428.038V13.3857H427.038ZM427.038 49.0566V48.0566H387.125V49.0566V50.0566H427.038V49.0566ZM387.125 49.0566H388.125V17.8447H387.125H386.125V49.0566H387.125ZM387.125 17.8447V18.8447H409.298V17.8447V16.8447H387.125V17.8447ZM409.298 17.8447H408.298V31.2217H409.298H410.298V17.8447H409.298ZM409.298 31.2217V30.2217H400.433V31.2217V32.2217H409.298V31.2217ZM400.433 31.2217H399.433V35.6807H400.433H401.433V31.2217H400.433ZM400.433 35.6807V36.6807H413.73V35.6807V34.6807H400.433V35.6807ZM413.73 35.6807H414.73V13.3857H413.73H412.73V35.6807H413.73ZM413.73 13.3857V12.3857H382.692V13.3857V14.3857H413.73V13.3857ZM382.692 13.3857H381.692V49.0566H382.692H383.692V13.3857H382.692ZM382.692 49.0566V48.0566H342.798V49.0566V50.0566H382.692V49.0566ZM342.798 49.0566H343.798V17.8447H342.798H341.798V49.0566H342.798ZM342.798 17.8447V18.8447H364.962V17.8447V16.8447H342.798V17.8447ZM364.962 17.8447H363.962V31.2217H364.962H365.962V17.8447H364.962ZM364.962 31.2217V30.2217H356.096V31.2217V32.2217H364.962V31.2217ZM356.096 31.2217H355.096V35.6807H356.096H357.096V31.2217H356.096ZM356.096 35.6807V36.6807H369.395V35.6807V34.6807H356.096V35.6807ZM369.395 35.6807H370.395V13.3857H369.395H368.395V35.6807H369.395ZM369.395 13.3857V12.3857H338.365V13.3857V14.3857H369.395V13.3857ZM338.365 13.3857H337.365V49.0566H338.365H339.365V13.3857H338.365ZM338.365 49.0566V48.0566H298.471V49.0566V50.0566H338.365V49.0566ZM298.471 49.0566H299.471V17.8447H298.471H297.471V49.0566H298.471ZM298.471 17.8447V18.8447H320.635V17.8447V16.8447H298.471V17.8447ZM320.635 17.8447H319.635V31.2217H320.635H321.635V17.8447H320.635ZM320.635 31.2217V30.2217H311.77V31.2217V32.2217H320.635V31.2217ZM311.77 31.2217H310.77V35.6807H311.77H312.77V31.2217H311.77ZM311.77 35.6807V36.6807H325.067V35.6807V34.6807H311.77V35.6807ZM325.067 35.6807H326.067V13.3857H325.067H324.067V35.6807H325.067ZM325.067 13.3857V12.3857H294.038V13.3857V14.3857H325.067V13.3857ZM294.038 13.3857H293.038V49.0566H294.038H295.038V13.3857H294.038ZM294.038 49.0566V48.0566H254.125V49.0566V50.0566H294.038V49.0566ZM254.125 49.0566H255.125V17.8447H254.125H253.125V49.0566H254.125ZM254.125 17.8447V18.8447H276.298V17.8447V16.8447H254.125V17.8447ZM276.298 17.8447H275.298V31.2217H276.298H277.298V17.8447H276.298ZM276.298 31.2217V30.2217H267.433V31.2217V32.2217H276.298V31.2217ZM267.433 31.2217H266.433V35.6807H267.433H268.433V31.2217H267.433ZM267.433 35.6807V36.6807H280.73V35.6807V34.6807H267.433V35.6807ZM280.73 35.6807H281.73V13.3857H280.73H279.73V35.6807H280.73ZM280.73 13.3857V12.3857H249.692V13.3857V14.3857H280.73V13.3857ZM249.692 13.3857H248.692V49.0566H249.692H250.692V13.3857H249.692ZM249.692 49.0566V48.0566H209.798V49.0566V50.0566H249.692V49.0566ZM209.798 49.0566H210.798V17.8447H209.798H208.798V49.0566H209.798ZM209.798 17.8447V18.8447H231.962V17.8447V16.8447H209.798V17.8447ZM231.962 17.8447H230.962V31.2217H231.962H232.962V17.8447H231.962ZM231.962 31.2217V30.2217H223.096V31.2217V32.2217H231.962V31.2217ZM223.096 31.2217H222.096V35.6807H223.096H224.096V31.2217H223.096ZM223.096 35.6807V36.6807H236.395V35.6807V34.6807H223.096V35.6807ZM236.395 35.6807H237.395V13.3857H236.395H235.395V35.6807H236.395ZM236.395 13.3857V12.3857H205.365V13.3857V14.3857H236.395V13.3857ZM205.365 13.3857H204.365V49.0566H205.365H206.365V13.3857H205.365ZM205.365 49.0566V48.0566H165.471V49.0566V50.0566H205.365V49.0566ZM165.471 49.0566H166.471V17.8447H165.471H164.471V49.0566H165.471ZM165.471 17.8447V18.8447H187.635V17.8447V16.8447H165.471V17.8447ZM187.635 17.8447H186.635V31.2217H187.635H188.635V17.8447H187.635ZM187.635 31.2217V30.2217H178.77V31.2217V32.2217H187.635V31.2217ZM178.77 31.2217H177.77V35.6807H178.77H179.77V31.2217H178.77ZM178.77 35.6807V36.6807H192.067V35.6807V34.6807H178.77V35.6807ZM192.067 35.6807H193.067V13.3857H192.067H191.067V35.6807H192.067ZM192.067 13.3857V12.3857H161.038V13.3857V14.3857H192.067V13.3857ZM161.038 13.3857H160.038V49.0566H161.038H162.038V13.3857H161.038ZM161.038 49.0566V48.0566H121.125V49.0566V50.0566H161.038V49.0566ZM121.125 49.0566H122.125V17.8447H121.125H120.125V49.0566H121.125ZM121.125 17.8447V18.8447H143.298V17.8447V16.8447H121.125V17.8447ZM143.298 17.8447H142.298V31.2217H143.298H144.298V17.8447H143.298ZM143.298 31.2217V30.2217H134.433V31.2217V32.2217H143.298V31.2217ZM134.433 31.2217H133.433V35.6807H134.433H135.433V31.2217H134.433ZM134.433 35.6807V36.6807H147.73V35.6807V34.6807H134.433V35.6807ZM147.73 35.6807H148.73V13.3857H147.73H146.73V35.6807H147.73ZM147.73 13.3857V12.3857H116.692V13.3857V14.3857H147.73V13.3857ZM116.692 13.3857H115.692V49.0566H116.692H117.692V13.3857H116.692ZM116.692 49.0566V48.0566H76.7979V49.0566V50.0566H116.692V49.0566ZM76.7979 49.0566H77.7979V17.8447H76.7979H75.7979V49.0566H76.7979ZM76.7979 17.8447V18.8447H98.9619V17.8447V16.8447H76.7979V17.8447ZM98.9619 17.8447H97.9619V31.2217H98.9619H99.9619V17.8447H98.9619ZM98.9619 31.2217V30.2217H90.0957V31.2217V32.2217H98.9619V31.2217ZM90.0957 31.2217H89.0957V35.6807H90.0957H91.0957V31.2217H90.0957ZM90.0957 35.6807V36.6807H103.395V35.6807V34.6807H90.0957V35.6807ZM103.395 35.6807H104.395V13.3857H103.395H102.395V35.6807H103.395ZM103.395 13.3857V12.3857H72.3652V13.3857V14.3857H103.395V13.3857ZM72.3652 13.3857H71.3652V49.0566H72.3652H73.3652V13.3857H72.3652ZM72.3652 49.0566V48.0566H32.4707V49.0566V50.0566H72.3652V49.0566ZM32.4707 49.0566H33.4707V17.8447H32.4707H31.4707V49.0566H32.4707ZM32.4707 17.8447V18.8447H54.6348V17.8447V16.8447H32.4707V17.8447ZM54.6348 17.8447H53.6348V31.2217H54.6348H55.6348V17.8447H54.6348ZM54.6348 31.2217V30.2217H45.7695V31.2217V32.2217H54.6348V31.2217ZM45.7695 31.2217H44.7695V35.6807H45.7695H46.7695V31.2217H45.7695ZM45.7695 35.6807V36.6807H59.0674V35.6807V34.6807H45.7695V35.6807ZM59.0674 35.6807H60.0674V13.3857H59.0674H58.0674V35.6807H59.0674ZM59.0674 13.3857V12.3857H28.0381V13.3857V14.3857H59.0674V13.3857ZM28.0381 13.3857H27.0381V49.0566H28.0381H29.0381V13.3857H28.0381ZM28.0381 49.0566V48.0566H-3V49.0566V50.0566H28.0381V49.0566ZM-3 49.0566H-2V44.5977H-3H-4V49.0566H-3ZM-3 44.5977V45.5977H23.5957V44.5977V43.5977H-3V44.5977ZM23.5957 44.5977H24.5957V8.91797H23.5957H22.5957V44.5977H23.5957ZM23.5957 8.91797V9.91797H63.5V8.91797V7.91797H23.5957V8.91797ZM63.5 8.91797H62.5V40.1387H63.5H64.5V8.91797H63.5ZM1460 22.3037V21.3037H1455.56V22.3037V23.3037H1460V22.3037ZM1455.56 22.3037H1454.56V44.5977H1455.56H1456.56V22.3037H1455.56ZM1455.56 44.5977V45.5977H1460V44.5977V43.5977H1455.56V44.5977ZM1460 44.5977H1459V49.0566H1460H1461V44.5977H1460ZM1460 49.0566V48.0566H1451.12V49.0566V50.0566H1460V49.0566ZM1451.12 49.0566H1452.12V17.8447H1451.12H1450.12V49.0566H1451.12ZM1451.12 17.8447V18.8447H1460V17.8447V16.8447H1451.12V17.8447ZM1460 17.8447H1459V22.3037H1460H1461V17.8447H1460ZM19.1631 40.1387V39.1387H-3V40.1387V41.1387H19.1631V40.1387ZM-3 40.1387H-2V26.7627H-3H-4V40.1387H-3ZM-3 26.7627V27.7627H5.86523V26.7627V25.7627H-3V26.7627ZM5.86523 26.7627H6.86523V22.3037H5.86523H4.86523V26.7627H5.86523ZM5.86523 22.3037V21.3037H-3V22.3037V23.3037H5.86523V22.3037ZM-3 22.3037H-2V17.8447H-3H-4V22.3037H-3ZM-3 17.8447V18.8447H10.2979V17.8447V16.8447H-3V17.8447ZM10.2979 17.8447H9.29785V31.2217H10.2979H11.2979V17.8447H10.2979ZM10.2979 31.2217V30.2217H1.43262V31.2217V32.2217H10.2979V31.2217ZM1.43262 31.2217H0.432617V35.6807H1.43262H2.43262V31.2217H1.43262ZM1.43262 35.6807V36.6807H14.7305V35.6807V34.6807H1.43262V35.6807ZM14.7305 35.6807H15.7305V13.3857H14.7305H13.7305V35.6807H14.7305ZM14.7305 13.3857V12.3857H-3V13.3857V14.3857H14.7305V13.3857ZM-3 13.3857H-2V8.91797H-3H-4V13.3857H-3ZM-3 8.91797V9.91797H19.1631V8.91797V7.91797H-3V8.91797ZM19.1631 8.91797H18.1631V40.1387H19.1631H20.1631V8.91797H19.1631ZM1460 0H1459V4.45898H1460H1461V0H1460ZM1460 4.45898V3.45898H-3V4.45898V5.45898H1460V4.45898ZM-3 4.45898H-2V0H-3H-4V4.45898H-3ZM-3 0V1H1460V0V-1H-3V0Z" fill="#323232" mask="url(#path-1-inside-1_278_507)"/>
</svg>
